<?xml version="1.0" encoding="UTF-8"?>
<!DOCTYPE svg PUBLIC "-//W3C//DTD SVG 1.1//EN" "http://www.w3.org/Graphics/SVG/1.1/DTD/svg11.dtd">
<svg version="1.1" xmlns="http://www.w3.org/2000/svg" xmlns:xlink="http://www.w3.org/1999/xlink" x="0" y="0" width="1024" height="1024" viewBox="0, 0, 1024, 1024">
  <style>
    svg {
      background-color: white;
    }
    path {
      fill: #1d3557;
    }
    @media (prefers-color-scheme:dark) {
      svg {
        background-color: transparent;
      }
      path {
        fill: #6b88a2;
      }
    }
  </style>
  <g id="logo">
    <path d="M992,32 L992,992 L32,992 L32,32 L992,32 z M937.093,86.908 L86.908,86.908 L86.908,937.093 L937.093,937.093 L937.093,86.908 z" fill="#6B88A2"/>
    <g id="photosystem">
      <path d="M273.898,860.613 C250.056,860.613 230.728,841.286 230.728,817.444 C230.728,793.602 250.056,774.275 273.898,774.275 C297.739,774.275 317.067,793.602 317.067,817.444 C317.067,841.286 297.739,860.613 273.898,860.613 z" fill="#1D3557"/>
      <path d="M419.165,473.055 L611.774,473.055 C624.131,473.055 634.147,478.605 634.147,485.451 L634.147,730.38 C634.147,737.227 624.131,742.777 611.774,742.777 L419.165,742.777 C406.809,742.777 396.792,737.227 396.792,730.38 L396.792,485.451 C396.792,478.605 406.809,473.055 419.165,473.055 z" fill="#1D3557"/>
      <path d="M129.565,551.814 L901.374,551.814 L901.374,664.018 L129.565,664.018 L129.565,551.814 z" fill="#1D3557"/>
      <g>
        <path d="M330.013,860.613 C404.053,913.99 475.344,882.18 501.128,823.279" fill-opacity="0" stroke="#1D3557" stroke-width="19"/>
        <path d="M514.642,826.075 L508.584,787.242 L487.614,820.483 z" fill="#1D3557" fill-opacity="1" stroke="#1D3557" stroke-width="19" stroke-opacity="1"/>
      </g>
      <g>
        <path d="M511.267,440.396 C511.267,346.388 571.047,322.366 643.873,302.377" fill-opacity="0" stroke="#1D3557" stroke-width="19"/>
        <path d="M647.457,315.704 L679.411,292.821 L640.29,289.05 z" fill="#1D3557" fill-opacity="1" stroke="#1D3557" stroke-width="19" stroke-opacity="1"/>
      </g>
      <path d="M786.135,326.329 C762.293,326.329 742.966,307.001 742.966,283.16 C742.966,259.318 762.293,239.99 786.135,239.99 C809.977,239.99 829.304,259.318 829.304,283.16 C829.304,307.001 809.977,326.329 786.135,326.329 z" fill="#1D3557"/>
      <g>
        <path d="M129.565,167.675 C174.878,120.204 212.267,130.15 227.256,145.14 C242.246,160.129 238.002,188.676 217.778,208.899 C197.554,229.123 193.311,257.67 208.301,272.659 C223.29,287.649 251.836,283.405 272.06,263.181 C292.284,242.957 320.83,238.714 335.82,253.704 C350.809,268.693 346.566,297.239 326.342,317.463 C306.118,337.687 300.772,367.424 316.864,381.223 C354.08,413.133 383.222,379.868 419.673,403.31" fill-opacity="0" stroke="#1D3557" stroke-width="19"/>
        <path d="M409.441,412.569 L444.365,430.597 L429.906,394.051 z" fill="#1D3557" fill-opacity="1" stroke="#1D3557" stroke-width="19" stroke-opacity="1"/>
      </g>
    </g>
  </g>
</svg>
