<svg xmlns="http://www.w3.org/2000/svg" version="1.1" xmlns:xlink="http://www.w3.org/1999/xlink" xmlns:svgjs="http://svgjs.dev/svgjs" width="1400" height="600" viewBox="0 0 1400 600"><defs>
    <linearGradient id="Gradient_1" gradientUnits="userSpaceOnUse" x1="700" y1="0" x2="700" y2="296.004">
      <stop offset="0.566" stop-color="#000000" stop-opacity="0"></stop>
      <stop offset="1" stop-color="#0070C4"></stop>
    </linearGradient>
  </defs><g id="stroma" transform="translate(0, 0)">
    <text transform="matrix(1, 0, 0, 1, 1355.338, 279.014)" svgjs:data="{&quot;leading&quot;:&quot;1.3&quot;}">
      <tspan x="-34.518" y="7.212" font-family="ArialMT" font-size="24" fill="#000000">stroma</tspan>
    </text>
    <path d="M-0,0 L1400,0 L1400,296.004 L-0,296.004 L-0,0 z" fill="url(#Gradient_1)" id="shape" opacity="0.123"></path>
  </g><g id="lumen" transform="translate(0, 0)">
    <path d="M-0,376.004 L1400,376.004 L1400,600 L-0,600 L-0,376.004 z" fill="#ffe5e5"></path>
    <text transform="matrix(1, 0, 0, 1, 1358.84, 392.945)" svgjs:data="{&quot;leading&quot;:&quot;1.3&quot;}">
      <tspan x="-30.04" y="7.212" font-family="ArialMT" font-size="24" fill="#000000">lumen</tspan>
    </text>
  </g><g id="thylakoidmembrane" transform="translate(0, 0)">
    <path d="M-0,296.004 L1400,296.004 L1400,376.004 L-0,376.004 L-0,296.004 z" fill="#dbdbdb"></path>
    <path d="M0.5,296.504 L1400.5,296.504" fill-opacity="0" stroke="#000000" stroke-width="1"></path>
    <path d="M0.5,376.504 L1400.5,376.504" fill-opacity="0" stroke="#000000" stroke-width="1"></path>
  </g><g id="electron-flux" transform="matrix(1,0,0,1,-0.488006591796875,0)">
    <g id="pc-to-ps-i">
      <path d="M841.221,412.224 C823.496,431.894 808.142,443.837 788.078,443.837" fill-opacity="0" stroke="#F8941D" stroke-width="3"></path>
      <path d="M841.221,412.224 L842.53,417.099 L846.763,405.911 L836.217,411.557 z" fill="#F8941D" fill-opacity="1" stroke="#F8941D" stroke-width="3" stroke-opacity="1"></path>
    </g>
    <g id="b6f-to-pc">
      <path d="M730.813,439.253 C713.872,434.135 699.731,416.062 689.304,401.988" fill-opacity="0" stroke="#F8941D" stroke-width="3"></path>
      <path d="M730.813,439.253 L727.414,442.985 L739.118,440.515 L728.675,434.68 z" fill="#F8941D" fill-opacity="1" stroke="#F8941D" stroke-width="3" stroke-opacity="1"></path>
    </g>
    <g id="ps-i-to-fd">
      <path d="M852.334,249.445 L852.334,275.829" fill-opacity="0" stroke="#F8941D" stroke-width="3"></path>
      <path d="M852.334,249.445 L856.534,252.245 L852.334,241.045 L848.134,252.245 z" fill="#F8941D" fill-opacity="1" stroke="#F8941D" stroke-width="3" stroke-opacity="1"></path>
    </g>
    <g id="fd-to-fnr">
      <path d="M869.148,165.664 L859.029,184.313" fill-opacity="0" stroke="#F8941D" stroke-width="3"></path>
      <path d="M869.148,165.664 L871.505,170.128 L873.155,158.281 L864.122,166.122 z" fill="#F8941D" fill-opacity="1" stroke="#F8941D" stroke-width="3" stroke-opacity="1"></path>
    </g>
    <g id="flow-q-cycle">
      <g>
        <path d="M552.895,352.348 C574.015,364.242 597.894,361.953 617.113,358.17" fill-opacity="0" stroke="#F8941D" stroke-width="3"></path>
        <path d="M617.113,358.17 L615.25,362.862 L625.329,356.42 L613.5,354.646 z" fill="#F8941D" fill-opacity="1" stroke="#F8941D" stroke-width="3" stroke-opacity="1"></path>
      </g>
      <g>
        <path d="M628.891,307.535 C603.438,303.518 580.06,313.116 561.96,322.513" fill-opacity="0" stroke="#F8941D" stroke-width="3"></path>
        <path d="M561.96,322.513 L562.441,317.488 L554.558,326.485 L566.413,324.889 z" fill="#F8941D" fill-opacity="1" stroke="#F8941D" stroke-width="3" stroke-opacity="1"></path>
      </g>
    </g>
    <g id="ps-ii-to-pq">
      <path d="M496.773,320.56 C477.285,306.9 441.565,310.935 414.488,314.678" fill-opacity="0" stroke="#F8941D" stroke-width="3"></path>
      <path d="M496.773,320.56 L491.858,321.71 L502.903,326.303 L497.601,315.581 z" fill="#F8941D" fill-opacity="1" stroke="#F8941D" stroke-width="3" stroke-opacity="1"></path>
    </g>
    <g id="fd-to-cyt-b6f">
      <path d="M673.549,253.71 C695.089,206.767 749.784,205.734 818.663,205.734" fill-opacity="0" stroke="#F8941D" stroke-width="3"></path>
      <path d="M673.549,253.71 L670.667,249.566 L670.47,261.526 L678.483,252.645 z" fill="#F8941D" fill-opacity="1" stroke="#F8941D" stroke-width="3" stroke-opacity="1"></path>
    </g>
  </g><g id="proton-flux" transform="matrix(1,0,0,1,-0.014007568359375,0)">
    <g>
      <g id="ps-ii-atp-synthase">
        <path d="M997.144,487.575 C918.689,503.493 853.657,513.312 766.726,513.312 C664.863,513.312 581.4,508.078 522.072,496.247" fill-opacity="0" stroke="#00BCFF" stroke-width="3"></path>
        <path d="M997.144,487.575 L995.242,492.251 L1005.374,485.892 L993.559,484.021 z" fill="#00BCFF" fill-opacity="1" stroke="#00BCFF" stroke-width="3" stroke-opacity="1"></path>
      </g>
      <g id="h2o_lumen">
        <path d="M489.463,462.261 C480.427,446.861 450.435,434.397 427.051,425.211" fill-opacity="0" stroke="#00BCFF" stroke-width="3"></path>
        <path d="M489.463,462.261 L484.632,460.797 L491.895,470.301 L492.672,458.365 z" fill="#00BCFF" fill-opacity="1" stroke="#00BCFF" stroke-width="3" stroke-opacity="1"></path>
      </g>
    </g>
    <g id="atp-synthase">
      <g>
        <path d="M1124.963,99.587 C1103.894,118.51 1091.082,134.839 1091.082,156.221 L1091.082,407.359 C1091.082,434.065 1067.677,456.142 1050.138,471.697" fill-opacity="0" stroke="#00BCFF" stroke-width="3"></path>
        <path d="M1124.963,99.587 L1125.626,104.591 L1131.28,94.05 L1120.089,98.274 z" fill="#00BCFF" fill-opacity="1" stroke="#00BCFF" stroke-width="3" stroke-opacity="1"></path>
      </g>
      <text transform="matrix(1, 0, 0, 1, 1151.418, 85.829)" svgjs:data="{&quot;leading&quot;:&quot;1.3&quot;}">
        <tspan x="-13.729" y="8" font-family="ArialMT" font-size="24" fill="#000000">H</tspan>
        <tspan x="3.604" y="8" font-family="LucidaGrande" font-size="24" fill="#000000">⁺</tspan>
      </text>
      <text transform="matrix(1, 0, 0, 1, 1030.685, 480.747)" svgjs:data="{&quot;leading&quot;:&quot;1.3&quot;}">
        <tspan x="-13.729" y="8" font-family="ArialMT" font-size="24" fill="#000000">H</tspan>
        <tspan x="3.604" y="8" font-family="LucidaGrande" font-size="24" fill="#000000">⁺</tspan>
      </text>
    </g>
    <g id="stroma-ps-ii">
      <g>
        <path d="M415.571,253.347 C414.877,268.923 422.449,282.144 430.181,292.514" fill-opacity="0" stroke="#00BCFF" stroke-width="3"></path>
        <path d="M430.181,292.514 L425.149,292.917 L435.383,299.109 L431.745,287.714 z" fill="#00BCFF" fill-opacity="1" stroke="#00BCFF" stroke-width="3" stroke-opacity="1"></path>
      </g>
      <text transform="matrix(1, 0, 0, 1, 420.743, 237.847)" svgjs:data="{&quot;leading&quot;:&quot;1.3&quot;}">
        <tspan x="-13.729" y="8" font-family="ArialMT" font-size="24" fill="#000000">H</tspan>
        <tspan x="3.604" y="8" font-family="LucidaGrande" font-size="24" fill="#000000">⁺</tspan>
      </text>
    </g>
    <g id="stroma-b6f">
      <g>
        <path d="M626.694,254.347 C627.388,269.923 619.816,283.144 612.084,293.514" fill-opacity="0" stroke="#00BCFF" stroke-width="3"></path>
        <path d="M612.084,293.514 L610.52,288.714 L606.882,300.109 L617.115,293.917 z" fill="#00BCFF" fill-opacity="1" stroke="#00BCFF" stroke-width="3" stroke-opacity="1"></path>
      </g>
      <text transform="matrix(1, 0, 0, 1, 631.035, 238.847)" svgjs:data="{&quot;leading&quot;:&quot;1.3&quot;}">
        <tspan x="-13.729" y="8" font-family="ArialMT" font-size="24" fill="#000000">H</tspan>
        <tspan x="3.604" y="8" font-family="LucidaGrande" font-size="24" fill="#000000">⁺</tspan>
      </text>
    </g>
    <g id="b6f-lumen">
      <g>
        <path d="M628.978,366.195 C599.455,375.608 595.214,405.38 621.862,421.125" fill-opacity="0" stroke="#00BCFF" stroke-width="3"></path>
        <path d="M621.862,421.125 L617.513,423.689 L629.425,424.78 L621.168,416.126 z" fill="#00BCFF" fill-opacity="1" stroke="#00BCFF" stroke-width="3" stroke-opacity="1"></path>
      </g>
      <text transform="matrix(1, 0, 0, 1, 652.013, 433.79)" svgjs:data="{&quot;leading&quot;:&quot;1.3&quot;}">
        <tspan x="-13.729" y="8" font-family="ArialMT" font-size="24" fill="#000000">H</tspan>
        <tspan x="3.604" y="8" font-family="LucidaGrande" font-size="24" fill="#000000">⁺</tspan>
      </text>
    </g>
  </g><g id="photosystem-ii" transform="matrix(1,0,0,1,0.3780059814453125,0)">
    <g id="fluorescence">
      <path d="M331.952,220.062 C336.305,226.505 338.122,223.592 339.949,227.289 C341.176,229.771 341.356,230.994 339.036,233.332 C337.741,234.529 336.758,236.616 337.815,238.755 C338.873,240.894 340.763,241.464 342.864,241.078 C344.608,240.757 346.856,241.262 347.914,243.401 C348.971,245.54 347.922,247.608 346.693,248.824 C345.274,250.227 344.416,252.107 345.473,254.246 C346.53,256.385 348.897,256.826 350.522,256.57 C352.248,256.298 354.514,256.754 355.571,258.893 C356.629,261.032 355.62,263.111 354.351,264.316 C352.79,265.797 352.073,267.599 353.131,269.738 C354.188,271.877 355.902,272.456 358.18,272.062 C359.916,271.761 362.172,272.246 363.229,274.385 C364.286,276.524 364.395,277.602 362.009,279.807 C360.714,281.004 359.731,283.091 360.788,285.23 C361.846,287.369 363.736,287.94 365.837,287.553 C367.581,287.233 369.829,287.738 370.887,289.877 C371.944,292.016 370.895,294.084 369.666,295.299 C368.247,296.702 367.389,298.583 368.446,300.722 C369.503,302.861 371.87,303.301 373.495,303.045 C375.221,302.773 377.487,303.23 378.544,305.369 C379.602,307.508 378.593,309.586 377.324,310.791 C375.763,312.273 375.046,314.075 376.104,316.214 C377.161,318.352 378.875,318.931 381.153,318.537 C382.889,318.236 385.145,318.721 386.202,320.86 C387.259,322.999 384.481,324.803 384.982,326.283" fill-opacity="0" stroke="#EF2D37" stroke-width="2"></path>
      <path d="M331.952,220.062 L336.262,220.433 L328.486,213.751 L329.952,223.899 z" fill="#EF2D37" fill-opacity="1" stroke="#EF2D37" stroke-width="2" stroke-opacity="1"></path>
    </g>
    <g id="core">
      <path d="M395.811,281.773 C404.748,281.879 411.083,288.279 415.802,295.181 C406.565,296.915 401.533,305.296 401.126,314.18 C401.126,324.86 408.973,333.517 418.652,333.517 C421.657,333.536 423.371,332.878 425.982,331.661 C426.091,333.569 426.034,332.32 426.078,335.411 C426.027,349.696 420.163,372.829 409.389,383.195 C418.965,385.952 428.377,391.336 429.026,401.581 C429.026,413.456 416.959,423.083 402.074,423.083 C397.126,423.044 392.162,422.068 387.784,419.71 C383.45,422.223 378.407,422.885 373.493,423.083 C358.609,423.083 346.542,413.456 346.542,401.581 C346.945,393.666 351.844,391.657 357.758,386.938 C348.423,373.186 344.484,354.49 344.118,338.253 C344.118,307.845 355.125,283.194 368.701,283.194 C373.362,283.288 377.246,286.053 380.114,289.542 C384.329,284.992 389.565,282.053 395.811,281.773 L395.811,281.773 z" fill="#b4d66f"></path>
      <path d="M395.811,281.773 C404.748,281.879 411.083,288.279 415.802,295.181 C406.565,296.915 401.533,305.296 401.126,314.18 C401.126,324.86 408.973,333.517 418.652,333.517 C421.657,333.536 423.371,332.878 425.982,331.661 C426.091,333.569 426.034,332.32 426.078,335.411 C426.027,349.696 420.163,372.829 409.389,383.195 C418.965,385.952 428.377,391.336 429.026,401.581 C429.026,413.456 416.959,423.083 402.074,423.083 C397.126,423.044 392.162,422.068 387.784,419.71 C383.45,422.223 378.407,422.885 373.493,423.083 C358.609,423.083 346.542,413.456 346.542,401.581 C346.945,393.666 351.844,391.657 357.758,386.938 C348.423,373.186 344.484,354.49 344.118,338.253 C344.118,307.845 355.125,283.194 368.701,283.194 C373.362,283.288 377.246,286.053 380.114,289.542 C384.329,284.992 389.565,282.053 395.811,281.773 L395.811,281.773 z" fill-opacity="0" stroke="#3B3838" stroke-width="1"></path>
    </g>
    <g id="antenna">
      <g id="lhcb">
        <path d="M315.009,292.94 L340.166,292.94 C346.273,292.94 351.224,297.481 351.224,303.083 L351.224,370.767 C351.224,376.368 346.273,380.909 340.166,380.909 L315.009,380.909 C308.902,380.909 303.951,376.368 303.951,370.767 L303.951,303.083 C303.951,297.481 308.902,292.94 315.009,292.94 z" fill="#8bc300"></path>
        <path d="M315.009,292.94 L340.166,292.94 C346.273,292.94 351.224,297.481 351.224,303.083 L351.224,370.767 C351.224,376.368 346.273,380.909 340.166,380.909 L315.009,380.909 C308.902,380.909 303.951,376.368 303.951,370.767 L303.951,303.083 C303.951,297.481 308.902,292.94 315.009,292.94 z" fill-opacity="0" stroke="#3B3838" stroke-width="1" fill="#8bc300"></path>
      </g>
      <g id="lhcb">
        <path d="M280.01,292.94 L305.167,292.94 C311.274,292.94 316.225,297.481 316.225,303.083 L316.225,370.767 C316.225,376.368 311.274,380.909 305.167,380.909 L280.01,380.909 C273.903,380.909 268.952,376.368 268.952,370.767 L268.952,303.083 C268.952,297.481 273.903,292.94 280.01,292.94 z" fill="#8bc300"></path>
        <path d="M280.01,292.94 L305.167,292.94 C311.274,292.94 316.225,297.481 316.225,303.083 L316.225,370.767 C316.225,376.368 311.274,380.909 305.167,380.909 L280.01,380.909 C273.903,380.909 268.952,376.368 268.952,370.767 L268.952,303.083 C268.952,297.481 273.903,292.94 280.01,292.94 z" fill-opacity="0" stroke="#3B3838" stroke-width="1" fill="#8bc300"></path>
      </g>
    </g>
    <g id="water-split">
      <text transform="matrix(1, 0, 0, 1, 352.14, 464.889)" svgjs:data="{&quot;leading&quot;:&quot;1.3&quot;}">
        <tspan x="-23.062" y="8.212" font-family="ArialMT" font-size="24" fill="#000000">H</tspan>
        <tspan x="-5.73" y="8.212" font-family="LucidaGrande" font-size="24" fill="#000000">₂</tspan>
        <tspan x="4.395" y="8.212" font-family="ArialMT" font-size="24" fill="#000000">O</tspan>
      </text>
      <text transform="matrix(1, 0, 0, 1, 421.816, 464.889)" svgjs:data="{&quot;leading&quot;:&quot;1.3&quot;}">
        <tspan x="-14.396" y="8.212" font-family="ArialMT" font-size="24" fill="#000000">O</tspan>
        <tspan x="4.271" y="8.212" font-family="LucidaGrande" font-size="24" fill="#000000">₂</tspan>
      </text>
      <g>
        <path d="M353.376,448.164 C353.363,428.717 367.707,412.942 385.413,412.93 C400.189,412.92 412.638,423.889 416.362,438.821" fill-opacity="0" stroke="#3A658B" stroke-width="3"></path>
        <path d="M416.362,438.821 L411.854,436.551 L417.381,447.159 L420.192,435.532 z" fill="#3A658B" fill-opacity="1" stroke="#3A658B" stroke-width="3" stroke-opacity="1"></path>
      </g>
      <text transform="matrix(1, 0, 0, 1, 503.931, 492.677)" svgjs:data="{&quot;leading&quot;:&quot;1.3&quot;}">
        <tspan x="-13.729" y="8" font-family="ArialMT" font-size="24" fill="#000000">H</tspan>
        <tspan x="3.604" y="8" font-family="LucidaGrande" font-size="24" fill="#000000">⁺</tspan>
      </text>
    </g>
    <text transform="matrix(1, 0, 0, 1, 384.586, 374.195)" id="photosystem-ii-center" svgjs:data="{&quot;leading&quot;:&quot;1.3&quot;}">
      <tspan x="-10.509" y="4.5" font-family="Arial-BoldMT" font-size="14" fill="#000000">P</tspan>
      <tspan x="-1.171" y="4.5" font-family="Arial-BoldMT" font-size="7" fill="#000000">680</tspan>
    </text>
    <g id="cofactors">
      <text transform="matrix(1, 0, 0, 1, 371.868, 391.909)" svgjs:data="{&quot;leading&quot;:&quot;1.3&quot;}">
        <tspan x="-5.657" y="1.5" font-family="ArialMT" font-size="10" fill="#000000">Y</tspan>
        <tspan x="1.013" y="1.5" font-family="ArialMT" font-size="6" fill="#000000">z</tspan>
      </text>
      <text transform="matrix(1, 0, 0, 1, 398.541, 403.233)" svgjs:data="{&quot;leading&quot;:&quot;1.3&quot;}">
        <tspan x="-15.447" y="2.5" font-family="ArialMT" font-size="10" fill="#000000">CaMn</tspan>
        <tspan x="11.228" y="2.5" font-family="LucidaGrande" font-size="10" fill="#000000">₄</tspan>
      </text>
      <text transform="matrix(1, 0, 0, 1, 391.413, 317.33)" svgjs:data="{&quot;leading&quot;:&quot;1.3&quot;}">
        <tspan x="-5.89" y="1.5" font-family="ArialMT" font-size="10" fill="#000000">Q</tspan>
        <tspan x="1.888" y="1.5" font-family="ArialMT" font-size="6" fill="#000000">B</tspan>
      </text>
      <path d="M382.041,400.106 L377.867,396.458" fill-opacity="0" stroke="#000000" stroke-width="1"></path>
      <path d="M374.577,365.344 L367.782,356.562" fill-opacity="0" stroke="#000000" stroke-width="1"></path>
      <path d="M364.772,344.205 L367.782,330.704" fill-opacity="0" stroke="#000000" stroke-width="1"></path>
      <path d="M375.812,323.083 L384.362,319.051" fill-opacity="0" stroke="#000000" stroke-width="1"></path>
      <text transform="matrix(1, 0, 0, 1, 365.733, 325.923)" svgjs:data="{&quot;leading&quot;:&quot;1.3&quot;}">
        <tspan x="-5.89" y="1.5" font-family="ArialMT" font-size="10" fill="#000000">Q</tspan>
        <tspan x="1.888" y="1.5" font-family="ArialMT" font-size="6" fill="#000000">A</tspan>
      </text>
      <text transform="matrix(1, 0, 0, 1, 369.095, 352.397)" svgjs:data="{&quot;leading&quot;:&quot;1.3&quot;}">
        <tspan x="-11.898" y="1.5" font-family="ArialMT" font-size="10" fill="#000000">Pheo</tspan>
      </text>
      <path d="M377.53,386.298 L383.103,381.544" fill-opacity="0" stroke="#000000" stroke-width="1"></path>
    </g>
    <g id="light" transform="matrix(1,0,0,1,0,0)">
      <path d="M289.026,275.747 L271.702,255.981 L277.381,253.128 L263.72,229.837 L236.622,245.066 L260.584,261.862 L252.581,267.226 L275.612,283.728 L268.647,286.945 L305.822,313.819 L283.408,279.153 L289.026,275.747 z" fill="#ffec7f"></path>
      <path d="M263.72,229.837 L277.381,253.128 L271.702,255.981 L289.026,275.747 L289.026,275.747 L283.408,279.153 L305.822,313.819 L268.647,286.945 L275.612,283.728 L252.581,267.226 L260.584,261.862 L236.622,245.066 L263.72,229.837 z M263.354,231.19 L238.497,245.159 L261.158,261.043 L262.353,261.881 L261.141,262.693 L254.336,267.253 L276.195,282.915 L277.591,283.915 L276.031,284.635 L270.618,287.136 L302.088,309.885 L282.569,279.696 L282.01,278.832 L282.89,278.298 L287.488,275.51 L270.949,256.641 L270.098,255.668 L271.253,255.088 L275.978,252.714 L263.354,231.19 z" fill="#000000"></path>
    </g>
    <g id="label">
      <text transform="matrix(1, 0, 0, 1, 379.998, 574.538)" svgjs:data="{&quot;leading&quot;:&quot;1.3&quot;}">
        <tspan x="-69.445" y="4.5" font-family="ArialMT" font-size="21" fill="#000000">Photosystem II</tspan>
      </text>
    </g>
  </g><defs>
    <pattern id="Pattern_1" patternUnits="userSpaceOnUse" x="227.713" y="51.755" width="40" height="40" patternTransform="matrix(0.29, 0, 0, 0.29, 0, 0)">
      <g transform="translate(-0, -0)">
        <path d="M40,0 L0,0 L0,40 L40,40 L40,0 z" fill="#BFBFBF"></path>
        <path d="M30,0 L40,10 L40,0 L30,0 z" fill="#808080"></path>
        <path d="M0,40 L0,30 L10,40 L0,40 z" fill="#808080"></path>
        <path d="M30,40 L40,40 L40,30 L10,0 L0,0 L0,10" fill="#808080"></path>
      </g>
    </pattern>
  </defs><g id="photosystem-ii-repair" transform="matrix(1,0,0,1,0.49199676513671875,0)">
    <g id="core">
      <path d="M279.906,51.517 C288.842,51.623 295.177,58.023 299.897,64.925 C290.659,66.659 285.627,75.039 285.22,83.924 C285.221,94.604 293.067,103.261 302.747,103.261 C305.751,103.28 307.465,102.621 310.077,101.404 C310.186,103.313 310.129,102.064 310.173,105.154 C310.122,119.439 304.257,142.573 293.484,152.939 C303.059,155.695 312.471,161.08 313.12,171.324 C313.12,183.2 301.054,192.827 286.169,192.827 C281.221,192.788 276.256,191.812 271.878,189.454 C267.545,191.967 262.502,192.628 257.588,192.827 C242.703,192.827 230.637,183.2 230.637,171.324 C231.039,163.41 235.938,161.4 241.853,156.682 L241.601,156.288 C244.383,159.803 248.31,162.117 252.796,162.371 C266.372,162.371 277.379,137.721 277.379,107.313 C276.802,91.44 275.15,71.912 264.517,58.977 C268.591,54.468 273.945,52.108 279.906,51.517 L279.906,51.517 z" fill="#b4d66f"></path>
      <path d="M279.906,51.517 C288.842,51.623 295.177,58.023 299.897,64.925 C290.659,66.659 285.627,75.039 285.22,83.924 C285.221,94.604 293.067,103.261 302.747,103.261 C305.751,103.28 307.465,102.621 310.077,101.404 C310.186,103.313 310.129,102.064 310.173,105.154 C310.122,119.439 304.257,142.573 293.484,152.939 C303.059,155.695 312.471,161.08 313.12,171.324 C313.12,183.2 301.054,192.827 286.169,192.827 C281.221,192.788 276.256,191.812 271.878,189.454 C267.545,191.967 262.502,192.628 257.588,192.827 C242.703,192.827 230.637,183.2 230.637,171.324 C231.039,163.41 235.938,161.4 241.853,156.682 L241.601,156.288 C244.383,159.803 248.31,162.117 252.796,162.371 C266.372,162.371 277.379,137.721 277.379,107.313 C276.802,91.44 275.15,71.912 264.517,58.977 C268.591,54.468 273.945,52.108 279.906,51.517 L279.906,51.517 z" fill-opacity="0" stroke="#3B3838" stroke-width="1"></path>
    </g>
    <g id="d1">
      <g id="photosystem-ii-repair-d1">
        <path d="M252.296,161.871 C238.719,161.871 227.713,137.221 227.713,106.813 C227.713,76.405 238.719,51.755 252.296,51.755 C265.872,51.755 276.879,76.405 276.879,106.813 C276.879,137.221 265.872,161.871 252.296,161.871 z" fill="url(#Pattern_1)"></path>
        <path d="M252.296,161.871 C238.719,161.871 227.713,137.221 227.713,106.813 C227.713,76.405 238.719,51.755 252.296,51.755 C265.872,51.755 276.879,76.405 276.879,106.813 C276.879,137.221 265.872,161.871 252.296,161.871 z" fill-opacity="0" stroke="#3B3838" stroke-width="1"></path>
      </g>
      <text transform="matrix(1, 0, 0, 1, 251.954, 140.33)" svgjs:data="{&quot;leading&quot;:&quot;1.3&quot;}">
        <tspan x="-8.948" y="4.5" font-family="ArialMT" font-size="14" fill="#000000">D1</tspan>
      </text>
    </g>
    <g id="antenna">
      <g id="lhcb">
        <path d="M199.103,64.684 L224.26,64.684 C230.367,64.684 235.318,69.225 235.318,74.826 L235.318,142.51 C235.318,148.112 230.367,152.652 224.26,152.652 L199.103,152.652 C192.996,152.652 188.045,148.112 188.045,142.51 L188.045,74.826 C188.045,69.225 192.996,64.684 199.103,64.684 z" fill="#8bc300"></path>
        <path d="M199.103,64.684 L224.26,64.684 C230.367,64.684 235.318,69.225 235.318,74.826 L235.318,142.51 C235.318,148.112 230.367,152.652 224.26,152.652 L199.103,152.652 C192.996,152.652 188.045,148.112 188.045,142.51 L188.045,74.826 C188.045,69.225 192.996,64.684 199.103,64.684 z" fill-opacity="0" stroke="#3B3838" stroke-width="1" fill="#8bc300"></path>
      </g>
      <g id="lhcb">
        <path d="M162.104,64.684 L187.261,64.684 C193.368,64.684 198.319,69.225 198.319,74.826 L198.319,142.51 C198.319,148.112 193.368,152.652 187.261,152.652 L162.104,152.652 C155.997,152.652 151.046,148.112 151.046,142.51 L151.046,74.826 C151.046,69.225 155.997,64.684 162.104,64.684 z" fill="#8bc300"></path>
        <path d="M162.104,64.684 L187.261,64.684 C193.368,64.684 198.319,69.225 198.319,74.826 L198.319,142.51 C198.319,148.112 193.368,152.652 187.261,152.652 L162.104,152.652 C155.997,152.652 151.046,148.112 151.046,142.51 L151.046,74.826 C151.046,69.225 155.997,64.684 162.104,64.684 z" fill-opacity="0" stroke="#3B3838" stroke-width="1" fill="#8bc300"></path>
      </g>
    </g>
    <g id="cycle">
      <g>
        <path d="M386.992,257.171 C392.09,218.842 396.374,189.139 383.483,161.597 C372.141,137.364 356.506,120.434 327.632,111.689" fill-opacity="0" stroke="#B4D66F" stroke-width="4" stroke-dasharray="12,4"></path>
        <path d="M386.992,257.171 L382.647,253.376 L385.747,266.69 L392.166,254.621 z" fill="#B4D66F" fill-opacity="1" stroke="#B4D66F" stroke-width="4" stroke-opacity="1"></path>
      </g>
      <g>
        <path d="M194.942,180.037 C170.999,199.57 168.196,215.87 172.831,236.127 C178.75,261.991 183.746,269.985 201.233,281.773" fill-opacity="0" stroke="#983432" stroke-width="4" stroke-dasharray="12,4"></path>
        <path d="M194.942,180.037 L195.274,185.796 L202.609,174.261 L189.498,178.129 z" fill="#983432" fill-opacity="1" stroke="#983432" stroke-width="4" stroke-opacity="1"></path>
      </g>
      <text transform="matrix(1, 0, 0, 1, 138.727, 196.734)" svgjs:data="{&quot;leading&quot;:&quot;1.3&quot;}">
        <tspan x="-25.938" y="4.5" font-family="ArialMT" font-size="14" fill="#000000">damage</tspan>
      </text>
      <text transform="matrix(1, 0, 0, 1, 414.208, 173.962)" svgjs:data="{&quot;leading&quot;:&quot;1.3&quot;}">
        <tspan x="-19.114" y="4.5" font-family="ArialMT" font-size="14" fill="#000000">repair</tspan>
      </text>
    </g>
    <g id="light" transform="matrix(1,0,0,1,0,0)">
      <path d="M161.912,52.225 L144.588,32.459 L150.267,29.606 L136.606,6.315 L109.508,21.544 L133.471,38.34 L125.467,43.703 L148.498,60.205 L141.533,63.422 L178.709,90.296 L156.295,55.631 L161.912,52.225 z" fill="#ffec7f"></path>
      <path d="M136.606,6.315 L150.267,29.606 L144.588,32.459 L161.912,52.225 L161.912,52.225 L156.294,55.631 L178.708,90.296 L141.533,63.422 L148.498,60.205 L125.467,43.703 L133.471,38.34 L109.508,21.544 L136.606,6.315 z M136.24,7.668 L111.383,21.637 L134.044,37.521 L135.239,38.358 L134.027,39.17 L127.223,43.731 L149.081,59.392 L150.477,60.393 L148.918,61.113 L143.504,63.613 L174.975,86.363 L155.455,56.174 L154.896,55.309 L155.776,54.776 L160.374,51.987 L143.836,33.118 L142.984,32.146 L144.139,31.565 L148.864,29.191 L136.24,7.668 z" fill="#000000"></path>
    </g>
  </g><g id="plastoquinone" transform="matrix(1,0,0,1,-0.06097412109375,0)">
    <g id="shape">
      <path d="M519.983,354.984 L510.134,337.925 L519.983,320.865 L539.681,320.865 L549.53,337.925 L539.681,354.984 z" fill="#ffe698"></path>
      <path d="M519.983,354.984 L510.134,337.925 L519.983,320.865 L539.681,320.865 L549.53,337.925 L539.681,354.984 z" fill-opacity="0" stroke="#3B3838" stroke-width="1"></path>
    </g>
    <text transform="matrix(1, 0, 0, 1, 529.332, 390.225)" svgjs:data="{&quot;leading&quot;:&quot;1.3&quot;}">
      <tspan x="-45.271" y="5.689" font-family="ArialMT" font-size="21" fill="#000000">PQ/PQH</tspan>
      <tspan x="36.412" y="5.689" font-family="LucidaGrande" font-size="21" fill="#000000">₂</tspan>
    </text>
  </g><g id="cytochrome-b6f" transform="matrix(1,0,0,1,-0.48895263671875,0)">
    <g id="core">
      <path d="M655.498,267.457 C675.147,267.457 691.076,293.75 691.076,326.183 C691.192,332.982 690.245,339.323 688.994,345.965 C699.86,349.08 703.904,361.547 704.283,371.638 C704.283,386.256 695.46,398.106 684.576,398.106 C675.306,397.791 669.131,390.242 666.527,381.963 C663.169,383.981 659.363,384.747 655.498,384.909 C646.635,384.927 639.904,379.589 634.281,373.32 C640.079,370.835 644.441,366.313 644.888,359.837 C644.301,348.973 632.875,344.517 623.487,344.171 L621.677,344.237 C620.378,338.308 620.013,332.235 619.92,326.183 C619.992,321.52 619.905,324.167 620.268,318.247 C621.897,319.181 623.796,319.344 625.629,319.445 C633.624,319.445 640.104,312.363 640.104,303.627 C640.004,296.459 635.609,289.785 628.42,288.182 C633.651,277.454 643.014,267.978 655.498,267.457 z" fill="#b2c7da"></path>
      <path d="M655.498,267.457 C675.147,267.457 691.076,293.75 691.076,326.183 C691.192,332.982 690.245,339.323 688.994,345.965 C699.86,349.08 703.904,361.547 704.283,371.638 C704.283,386.256 695.46,398.106 684.576,398.106 C675.306,397.791 669.131,390.242 666.527,381.963 C663.169,383.981 659.363,384.747 655.498,384.909 C646.635,384.927 639.904,379.589 634.281,373.32 C640.079,370.835 644.441,366.313 644.888,359.837 C644.301,348.973 632.875,344.517 623.487,344.171 L621.677,344.237 C620.378,338.308 620.013,332.235 619.92,326.183 C619.992,321.52 619.905,324.167 620.268,318.247 C621.897,319.181 623.796,319.344 625.629,319.445 C633.624,319.445 640.104,312.363 640.104,303.627 C640.004,296.459 635.609,289.785 628.42,288.182 C633.651,277.454 643.014,267.978 655.498,267.457 z" fill-opacity="0" stroke="#000000" stroke-width="1" fill="#b2c7da"></path>
    </g>
    <g id="rieske">
      <path d="M661.032,384.909 C661.032,395.793 653.332,405.166 639.099,405.166 C624.867,405.166 613.944,397.91 613.944,387.026 C613.944,376.143 625.523,370.284 639.756,370.284 C653.988,370.284 661.032,374.025 661.032,384.909 z" fill="#b2c7da"></path>
      <path d="M661.032,384.909 C661.032,395.793 653.332,405.166 639.099,405.166 C624.867,405.166 613.944,397.91 613.944,387.026 C613.944,376.143 625.523,370.284 639.756,370.284 C653.988,370.284 661.032,374.025 661.032,384.909 z" fill-opacity="0" stroke="#000000" stroke-width="1" fill="#b2c7da"></path>
    </g>
    <path d="M715.576,471.247 C704.692,471.247 695.869,459.397 695.869,444.779 C695.869,430.161 704.692,418.311 715.576,418.311 C726.46,418.311 735.283,430.161 735.283,444.779 C735.283,459.397 726.46,471.247 715.576,471.247 z" fill-opacity="0" stroke="#000000" stroke-width="2" display="none"></path>
    <path d="M652.677,417.378 C651.378,411.449 651.013,405.375 650.92,399.324 C650.992,394.66 650.905,397.307 651.268,391.387 C652.897,392.321 654.796,392.485 656.629,392.586 C664.624,392.586 671.104,385.504 671.104,376.767 C671.004,369.599 666.609,362.925 659.42,361.323 C664.651,350.595 674.014,341.119 686.498,340.598 C706.147,340.598 722.076,366.89 722.076,399.324 C722.076,431.757 706.147,458.049 686.498,458.049 C677.635,458.068 670.904,452.729 665.281,446.46 C671.079,443.976 675.441,439.454 675.888,432.978 C675.301,422.114 663.875,417.658 654.487,417.311 L652.677,417.378 z" fill-opacity="0" stroke="#000000" stroke-width="2" display="none"></path>
    <g id="cofactors">
      <g id="b6l">
        <text transform="matrix(1, 0, 0, 1, 666.625, 340.175)" svgjs:data="{&quot;leading&quot;:&quot;1.3&quot;}">
          <tspan x="-2.781" y="1.5" font-family="ArialMT" font-size="10" fill="#000000">b</tspan>
        </text>
        <text transform="matrix(1, 0, 0, 1, 670.266, 343.072)" svgjs:data="{&quot;leading&quot;:&quot;1.3&quot;}">
          <tspan x="-1.668" y="1" font-family="Arial-ItalicMT" font-size="6" fill="#000000">L</tspan>
        </text>
      </g>
      <text transform="matrix(1, 0, 0, 1, 648.547, 306.901)" svgjs:data="{&quot;leading&quot;:&quot;1.3&quot;}">
        <tspan x="-5.558" y="1.5" font-family="ArialMT" font-size="10" fill="#000000">Q</tspan>
        <tspan x="2.221" y="1.5" font-family="ArialMT" font-size="6" fill="#000000">n</tspan>
      </text>
      <path d="M656.401,344.833 L661.727,340.305" fill-opacity="0" stroke="#000000" stroke-width="1"></path>
      <path d="M662.635,360.504 L657.061,355.749" fill-opacity="0" stroke="#000000" stroke-width="1"></path>
      <text transform="matrix(1, 0, 0, 1, 687.415, 389.241)" svgjs:data="{&quot;leading&quot;:&quot;1.3&quot;}">
        <tspan x="-1.389" y="1.5" font-family="Arial-ItalicMT" font-size="10" fill="#000000">f</tspan>
      </text>
      <path d="M684.843,383.195 L678.856,375.36" fill-opacity="0" stroke="#000000" stroke-width="1"></path>
      <text transform="matrix(1, 0, 0, 1, 669.694, 367.504)" svgjs:data="{&quot;leading&quot;:&quot;1.3&quot;}">
        <tspan x="-13.793" y="2.5" font-family="ArialMT" font-size="10" fill="#000000">Fe</tspan>
        <tspan x="-2.123" y="2.5" font-family="LucidaGrande" font-size="10" fill="#000000">₂</tspan>
        <tspan x="2.095" y="2.5" font-family="ArialMT" font-size="10" fill="#000000">S</tspan>
        <tspan x="8.765" y="2.5" font-family="LucidaGrande" font-size="10" fill="#000000">₂</tspan>
      </text>
      <g id="b6h">
        <text transform="matrix(1, 0, 0, 1, 666.127, 314.582)" svgjs:data="{&quot;leading&quot;:&quot;1.3&quot;}">
          <tspan x="-2.781" y="1.5" font-family="ArialMT" font-size="10" fill="#000000">b</tspan>
        </text>
        <text transform="matrix(1, 0, 0, 1, 670.266, 317.479)" svgjs:data="{&quot;leading&quot;:&quot;1.3&quot;}">
          <tspan x="-2.167" y="1" font-family="Arial-ItalicMT" font-size="6" fill="#000000">H</tspan>
        </text>
      </g>
      <path d="M667.23,330.916 L667.23,322.27" fill-opacity="0" stroke="#000000" stroke-width="1"></path>
      <text transform="matrix(1, 0, 0, 1, 650.529, 350.479)" svgjs:data="{&quot;leading&quot;:&quot;1.3&quot;}">
        <tspan x="-5.558" y="1.5" font-family="ArialMT" font-size="10" fill="#000000">Q</tspan>
        <tspan x="2.221" y="1.5" font-family="ArialMT" font-size="6" fill="#000000">p</tspan>
      </text>
      <path d="M661.975,313.358 L656.401,308.603" fill-opacity="0" stroke="#000000" stroke-width="1"></path>
    </g>
    <g id="label">
      <text transform="matrix(1, 0, 0, 1, 654.194, 574.038)" svgjs:data="{&quot;leading&quot;:&quot;1.3&quot;}">
        <tspan x="-72.705" y="5" font-family="ArialMT" font-size="21" fill="#000000">Cytochrome </tspan>
        <tspan x="46.332" y="5" font-family="Arial-ItalicMT" font-size="21" fill="#000000">b</tspan>
        <tspan x="58.011" y="5" font-family="LucidaGrande" font-size="21" fill="#000000">₆</tspan>
        <tspan x="66.871" y="5" font-family="Arial-ItalicMT" font-size="21" fill="#000000">f</tspan>
      </text>
    </g>
  </g><g id="plastocyanin" transform="matrix(1,0,0,1,-0.33697509765625,0)">
    <g id="shape">
      <path d="M765.396,461.225 C755.975,461.225 748.337,453.587 748.337,444.165 C748.337,434.744 755.975,427.106 765.396,427.106 C774.818,427.106 782.456,434.744 782.456,444.165 C782.456,453.587 774.818,461.225 765.396,461.225 z" fill="#5b9bd5"></path>
      <path d="M765.396,461.225 C755.975,461.225 748.337,453.587 748.337,444.165 C748.337,434.744 755.975,427.106 765.396,427.106 C774.818,427.106 782.456,434.744 782.456,444.165 C782.456,453.587 774.818,461.225 765.396,461.225 z" fill-opacity="0" stroke="#000000" stroke-width="1"></path>
    </g>
    <g id="cofactor">
      <text transform="matrix(1, 0, 0, 1, 774.896, 438.433)" svgjs:data="{&quot;leading&quot;:&quot;1.3&quot;}">
        <tspan x="-14.586" y="5.378" font-family="ArialMT" font-size="10" fill="#000000">Cu</tspan>
        <tspan x="-1.586" y="2.078" font-family="ArialMT" font-size="6" fill="#000000">2+</tspan>
      </text>
    </g>
    <text transform="matrix(1, 0, 0, 1, 768.896, 480.233)" svgjs:data="{&quot;leading&quot;:&quot;1.3&quot;}">
      <tspan x="-14.586" y="5.378" font-family="ArialMT" font-size="21" fill="#000000">Pc</tspan>
    </text>
  </g><g id="photosystem-i" transform="matrix(1,0,0,1,-0.2960205078125,0)">
    <g id="antenna">
      <g id="lhca">
        <path d="M891.728,291.597 L916.885,291.597 C922.992,291.597 927.943,296.413 927.943,302.355 L927.943,374.15 C927.943,380.092 922.992,384.909 916.885,384.909 L891.728,384.909 C885.621,384.909 880.67,380.092 880.67,374.15 L880.67,302.355 C880.67,296.413 885.621,291.597 891.728,291.597 z" fill="#008000"></path>
        <path d="M891.728,291.597 L916.885,291.597 C922.992,291.597 927.943,296.413 927.943,302.355 L927.943,374.15 C927.943,380.092 922.992,384.909 916.885,384.909 L891.728,384.909 C885.621,384.909 880.67,380.092 880.67,374.15 L880.67,302.355 C880.67,296.413 885.621,291.597 891.728,291.597 z" fill-opacity="0" stroke="#3B3838" stroke-width="1" fill="#008000"></path>
      </g>
      <g id="lhca">
        <path d="M786.926,291.597 L812.083,291.597 C818.19,291.597 823.141,296.413 823.141,302.355 L823.141,374.15 C823.141,380.092 818.19,384.909 812.083,384.909 L786.926,384.909 C780.819,384.909 775.869,380.092 775.869,374.15 L775.869,302.355 C775.869,296.413 780.819,291.597 786.926,291.597 z" fill="#008000"></path>
        <path d="M786.926,291.597 L812.083,291.597 C818.19,291.597 823.141,296.413 823.141,302.355 L823.141,374.15 C823.141,380.092 818.19,384.909 812.083,384.909 L786.926,384.909 C780.819,384.909 775.869,380.092 775.869,374.15 L775.869,302.355 C775.869,296.413 780.819,291.597 786.926,291.597 z" fill-opacity="0" stroke="#3B3838" stroke-width="1" fill="#008000"></path>
      </g>
    </g>
    <g id="core">
      <path d="M869.29,279.265 C886.885,279.265 901.148,305.674 901.148,338.253 C901.148,370.831 886.885,397.241 869.29,397.241 C862.033,397.14 856.035,392.784 851.656,387.306 C847.349,392.99 841.219,396.904 834.021,397.241 C816.427,397.241 802.164,370.831 802.164,338.253 C802.164,305.674 816.427,279.265 834.021,279.265 C841.278,279.365 847.276,283.721 851.656,289.199 C855.963,283.515 862.093,279.602 869.29,279.265 z" fill="#0cb04b"></path>
      <path d="M869.29,279.265 C886.885,279.265 901.148,305.674 901.148,338.253 C901.148,370.831 886.885,397.241 869.29,397.241 C862.033,397.14 856.035,392.784 851.656,387.306 C847.349,392.99 841.219,396.904 834.021,397.241 C816.427,397.241 802.164,370.831 802.164,338.253 C802.164,305.674 816.427,279.265 834.021,279.265 C841.278,279.365 847.276,283.721 851.656,289.199 C855.963,283.515 862.093,279.602 869.29,279.265 z" fill-opacity="0" stroke="#3B3838" stroke-width="1" fill="#0cb04b"></path>
    </g>
    <text transform="matrix(1, 0, 0, 1, 851.544, 378.284)" id="center" svgjs:data="{&quot;leading&quot;:&quot;1.3&quot;}">
      <tspan x="-10.509" y="4.5" font-family="Arial-BoldMT" font-size="14" fill="#000000">P</tspan>
      <tspan x="-1.171" y="4.5" font-family="Arial-BoldMT" font-size="7" fill="#000000">700</tspan>
    </text>
    <g id="cofactors">
      <text transform="matrix(1, 0, 0, 1, 839.873, 310.422)" svgjs:data="{&quot;leading&quot;:&quot;1.3&quot;}">
        <tspan x="-5.055" y="1.5" font-family="ArialMT" font-size="10" fill="#000000">F</tspan>
        <tspan x="1.053" y="1.5" font-family="ArialMT" font-size="6" fill="#000000">A</tspan>
      </text>
      <text transform="matrix(1, 0, 0, 1, 855.114, 296.961)" svgjs:data="{&quot;leading&quot;:&quot;1.3&quot;}">
        <tspan x="-5.055" y="1.5" font-family="ArialMT" font-size="10" fill="#000000">F</tspan>
        <tspan x="1.053" y="1.5" font-family="ArialMT" font-size="6" fill="#000000">B</tspan>
      </text>
      <text transform="matrix(1, 0, 0, 1, 851.544, 325.517)" svgjs:data="{&quot;leading&quot;:&quot;1.3&quot;}">
        <tspan x="-5.055" y="1.5" font-family="ArialMT" font-size="10" fill="#000000">F</tspan>
        <tspan x="1.053" y="1.5" font-family="ArialMT" font-size="6" fill="#000000">X</tspan>
      </text>
      <path d="M845.989,318.422 L841.815,314.773" fill-opacity="0" stroke="#000000" stroke-width="1"></path>
      <path d="M844.714,303.422 L848.888,299.835" fill-opacity="0" stroke="#000000" stroke-width="1"></path>
      <path d="M839.814,378.658 L828.749,364.75" fill-opacity="0" stroke="#000000" stroke-width="1"></path>
      <path d="M875.91,364.75 L864.844,378.658" fill-opacity="0" stroke="#000000" stroke-width="1" stroke-dasharray="2,2"></path>
      <path d="M825.237,354.881 L828.748,338.892" fill-opacity="0" stroke="#000000" stroke-width="1"></path>
      <path d="M836.778,331.271 L845.329,327.239" fill-opacity="0" stroke="#000000" stroke-width="1"></path>
      <text transform="matrix(1, 0, 0, 1, 827.814, 334.111)" svgjs:data="{&quot;leading&quot;:&quot;1.3&quot;}">
        <tspan x="-7.004" y="1.5" font-family="ArialMT" font-size="10" fill="#000000">A</tspan>
        <tspan x="-0.334" y="1.5" font-family="ArialMT" font-size="6" fill="#000000">1B</tspan>
      </text>
      <text transform="matrix(1, 0, 0, 1, 825.167, 360.584)" svgjs:data="{&quot;leading&quot;:&quot;1.3&quot;}">
        <tspan x="-7.004" y="1.5" font-family="ArialMT" font-size="10" fill="#000000">A</tspan>
        <tspan x="-0.334" y="1.5" font-family="ArialMT" font-size="6" fill="#000000">0B</tspan>
      </text>
      <text transform="matrix(1, 0, 0, 1, 877.883, 334.726)" svgjs:data="{&quot;leading&quot;:&quot;1.3&quot;}">
        <tspan x="-7.004" y="1.5" font-family="ArialMT" font-size="10" fill="#000000">A</tspan>
        <tspan x="-0.334" y="1.5" font-family="ArialMT" font-size="6" fill="#000000">1A</tspan>
      </text>
      <text transform="matrix(1, 0, 0, 1, 879.769, 360.584)" svgjs:data="{&quot;leading&quot;:&quot;1.3&quot;}">
        <tspan x="-7.004" y="1.5" font-family="ArialMT" font-size="10" fill="#000000">A</tspan>
        <tspan x="-0.334" y="1.5" font-family="ArialMT" font-size="6" fill="#000000">0A</tspan>
      </text>
      <path d="M859.33,327.239 L867.88,331.271" fill-opacity="0" stroke="#000000" stroke-width="1" stroke-dasharray="2,2"></path>
      <path d="M875.91,338.892 L879.422,354.881" fill-opacity="0" stroke="#000000" stroke-width="1" stroke-dasharray="2,2"></path>
    </g>
    <g id="light" transform="matrix(1,0,0,1,0,0)">
      <path d="M782.7,275.747 L765.376,255.981 L771.055,253.128 L757.394,229.837 L730.296,245.066 L754.259,261.862 L746.255,267.226 L769.287,283.728 L762.321,286.945 L799.497,313.819 L777.083,279.153 L782.7,275.747 z" fill="#ffec7f"></path>
      <path d="M757.394,229.837 L771.055,253.128 L765.376,255.981 L782.7,275.747 L782.7,275.747 L777.083,279.153 L799.497,313.819 L762.321,286.945 L769.286,283.728 L746.255,267.226 L754.259,261.862 L730.296,245.066 L757.394,229.837 z M757.028,231.19 L732.171,245.159 L754.833,261.043 L756.027,261.881 L754.815,262.693 L748.01,267.253 L769.869,282.915 L771.265,283.915 L769.706,284.635 L764.292,287.136 L795.763,309.885 L776.243,279.696 L775.684,278.832 L776.564,278.298 L781.163,275.51 L764.624,256.641 L763.772,255.668 L764.927,255.088 L769.652,252.714 L757.028,231.19 z" fill="#000000"></path>
    </g>
    <g id="label">
      <text transform="matrix(1, 0, 0, 1, 848.998, 574.538)" svgjs:data="{&quot;leading&quot;:&quot;1.3&quot;}">
        <tspan x="-66.527" y="4.5" font-family="ArialMT" font-size="21" fill="#000000">Photosystem I</tspan>
      </text>
    </g>
  </g><g id="atp-synthase" transform="matrix(1,0,0,1,-0.07080078125,0)">
    <g id="base">
      <g id="i-subunit">
        <path d="M1034.112,291.597 L1062.208,291.597 C1066.083,291.597 1069.225,295.178 1069.225,299.597 L1069.225,382.957 C1069.225,387.375 1066.083,390.957 1062.208,390.957 L1034.112,390.957 C1030.237,390.957 1027.096,387.375 1027.096,382.957 L1027.096,299.597 C1027.096,295.178 1030.237,291.597 1034.112,291.597 z" fill="#c7b29e"></path>
        <path d="M1034.112,291.597 L1062.208,291.597 C1066.083,291.597 1069.225,295.178 1069.225,299.597 L1069.225,382.957 C1069.225,387.375 1066.083,390.957 1062.208,390.957 L1034.112,390.957 C1030.237,390.957 1027.096,387.375 1027.096,382.957 L1027.096,299.597 C1027.096,295.178 1030.237,291.597 1034.112,291.597 z" fill-opacity="0" stroke="#3B3838" stroke-width="1"></path>
      </g>
      <g id="gamma-subunit">
        <path d="M1090.885,319.445 C1083.062,319.445 1076.72,301.671 1076.72,279.745 C1076.72,257.819 1083.062,240.045 1090.885,240.045 C1098.707,240.045 1105.049,257.819 1105.049,279.745 C1105.049,301.671 1098.707,319.445 1090.885,319.445 z" fill="#f6e8d7"></path>
        <path d="M1090.885,319.445 C1083.062,319.445 1076.72,301.671 1076.72,279.745 C1076.72,257.819 1083.062,240.045 1090.885,240.045 C1098.707,240.045 1105.049,257.819 1105.049,279.745 C1105.049,301.671 1098.707,319.445 1090.885,319.445 z" fill-opacity="0" stroke="#3B3838" stroke-width="1"></path>
      </g>
      <g id="ii-subunit">
        <path d="M1027.424,383.195 C1021.48,383.195 1016.661,341.25 1016.661,289.508 C1016.661,237.766 1021.48,195.82 1027.424,195.82 C1033.369,195.82 1038.188,237.766 1038.188,289.508 C1038.188,341.25 1033.369,383.195 1027.424,383.195 z" fill="#e4d3bd"></path>
        <path d="M1027.424,383.195 C1021.48,383.195 1016.661,341.25 1016.661,289.508 C1016.661,237.766 1021.48,195.82 1027.424,195.82 C1033.369,195.82 1038.188,237.766 1038.188,289.508 C1038.188,341.25 1033.369,383.195 1027.424,383.195 z" fill-opacity="0" stroke="#3B3838" stroke-width="1"></path>
      </g>
      <g id="c-ring">
        <path d="M1116.085,285.483 C1121.111,285.483 1125.185,310.134 1125.185,340.541 C1125.185,370.949 1121.111,395.6 1116.085,395.6 C1111.807,394.652 1110.306,383.081 1109.785,379.931 C1109.086,384.096 1108.368,388.379 1106.614,392.259 C1105.992,393.635 1105.138,395.347 1103.485,395.6 C1099.207,394.652 1097.706,383.081 1097.185,379.931 C1096.486,384.096 1095.768,388.379 1094.014,392.259 C1093.392,393.635 1092.538,395.347 1090.885,395.6 C1086.607,394.652 1085.106,383.081 1084.585,379.931 C1083.886,384.096 1083.168,388.379 1081.414,392.259 C1080.792,393.635 1079.938,395.347 1078.285,395.6 C1074.007,394.652 1072.505,383.078 1071.985,379.928 C1071.286,384.094 1070.567,388.378 1068.813,392.259 C1068.191,393.635 1067.337,395.347 1065.684,395.6 C1060.658,395.6 1056.584,370.949 1056.584,340.541 C1056.584,310.134 1060.658,285.483 1065.684,285.483 C1069.962,286.43 1071.464,298.005 1071.985,301.155 C1072.683,296.989 1073.402,292.705 1075.156,288.824 C1075.778,287.448 1076.632,285.736 1078.285,285.483 C1082.562,286.43 1084.065,298.003 1084.585,301.152 C1085.284,296.987 1086.002,292.704 1087.756,288.824 C1088.378,287.448 1089.232,285.736 1090.885,285.483 C1095.162,286.43 1096.665,298.003 1097.185,301.152 C1097.884,296.987 1098.602,292.704 1100.356,288.824 C1100.978,287.448 1101.832,285.736 1103.485,285.483 C1107.762,286.43 1109.265,298.003 1109.785,301.152 C1110.484,296.987 1111.202,292.704 1112.956,288.824 C1113.578,287.448 1114.432,285.736 1116.085,285.483 z" fill="#e4d3bd"></path>
        <path d="M1116.085,285.483 C1121.111,285.483 1125.185,310.134 1125.185,340.541 C1125.185,370.949 1121.111,395.6 1116.085,395.6 C1111.807,394.652 1110.306,383.081 1109.785,379.931 C1109.086,384.096 1108.368,388.379 1106.614,392.259 C1105.992,393.635 1105.138,395.347 1103.485,395.6 C1099.207,394.652 1097.706,383.081 1097.185,379.931 C1096.486,384.096 1095.768,388.379 1094.014,392.259 C1093.392,393.635 1092.538,395.347 1090.885,395.6 C1086.607,394.652 1085.106,383.081 1084.585,379.931 C1083.886,384.096 1083.168,388.379 1081.414,392.259 C1080.792,393.635 1079.938,395.347 1078.285,395.6 C1074.007,394.652 1072.505,383.078 1071.985,379.928 C1071.286,384.094 1070.567,388.378 1068.813,392.259 C1068.191,393.635 1067.337,395.347 1065.684,395.6 C1060.658,395.6 1056.584,370.949 1056.584,340.541 C1056.584,310.134 1060.658,285.483 1065.684,285.483 C1069.962,286.43 1071.464,298.005 1071.985,301.155 C1072.683,296.989 1073.402,292.705 1075.156,288.824 C1075.778,287.448 1076.632,285.736 1078.285,285.483 C1082.562,286.43 1084.065,298.003 1084.585,301.152 C1085.284,296.987 1086.002,292.704 1087.756,288.824 C1088.378,287.448 1089.232,285.736 1090.885,285.483 C1095.162,286.43 1096.665,298.003 1097.185,301.152 C1097.884,296.987 1098.602,292.704 1100.356,288.824 C1100.978,287.448 1101.832,285.736 1103.485,285.483 C1107.762,286.43 1109.265,298.003 1109.785,301.152 C1110.484,296.987 1111.202,292.704 1112.956,288.824 C1113.578,287.448 1114.432,285.736 1116.085,285.483 z" fill-opacity="0" stroke="#3B3838" stroke-width="1"></path>
      </g>
    </g>
    <g id="head">
      <g id="beta-subunit">
        <path d="M1122.002,258.488 C1108.427,258.488 1097.423,240.332 1097.423,217.937 C1097.423,195.542 1108.427,177.386 1122.002,177.386 C1135.577,177.386 1146.581,195.542 1146.581,217.937 C1146.581,240.332 1135.577,258.488 1122.002,258.488 z" fill="#c7b29e"></path>
        <path d="M1122.002,258.488 C1108.427,258.488 1097.423,240.332 1097.423,217.937 C1097.423,195.542 1108.427,177.386 1122.002,177.386 C1135.577,177.386 1146.581,195.542 1146.581,217.937 C1146.581,240.332 1135.577,258.488 1122.002,258.488 z" fill-opacity="0" stroke="#3B3838" stroke-width="1" fill="#c7b29e"></path>
      </g>
      <g id="beta-subunit">
        <path d="M1059.766,258.488 C1046.191,258.488 1035.187,240.332 1035.187,217.937 C1035.187,195.542 1046.191,177.386 1059.766,177.386 C1073.341,177.386 1084.345,195.542 1084.345,217.937 C1084.345,240.332 1073.341,258.488 1059.766,258.488 z" fill="#c7b29e"></path>
        <path d="M1059.766,258.488 C1046.191,258.488 1035.187,240.332 1035.187,217.937 C1035.187,195.542 1046.191,177.386 1059.766,177.386 C1073.341,177.386 1084.345,195.542 1084.345,217.937 C1084.345,240.332 1073.341,258.488 1059.766,258.488 z" fill-opacity="0" stroke="#3B3838" stroke-width="1" fill="#c7b29e"></path>
      </g>
      <g id="alpha-subunit">
        <path d="M1091.519,258.488 C1077.945,258.488 1066.94,240.332 1066.94,217.937 C1066.94,195.542 1077.945,177.386 1091.519,177.386 C1105.094,177.386 1116.098,195.542 1116.098,217.937 C1116.098,240.332 1105.094,258.488 1091.519,258.488 z" fill="#d6c2ad"></path>
        <path d="M1091.519,258.488 C1077.945,258.488 1066.94,240.332 1066.94,217.937 C1066.94,195.542 1077.945,177.386 1091.519,177.386 C1105.094,177.386 1116.098,195.542 1116.098,217.937 C1116.098,240.332 1105.094,258.488 1091.519,258.488 z" fill-opacity="0" stroke="#3B3838" stroke-width="1"></path>
      </g>
    </g>
    <g id="subunits">
      <text transform="matrix(1, 0, 0, 1, 1091.019, 249.488)" svgjs:data="{&quot;leading&quot;:&quot;1.3&quot;}">
        <tspan x="-2.62" y="2.5" font-family="STIXGeneral-Regular" font-size="10" fill="#000000">𝛼</tspan>
      </text>
      <text transform="matrix(1, 0, 0, 1, 1121.502, 249.488)" svgjs:data="{&quot;leading&quot;:&quot;1.3&quot;}">
        <tspan x="-2.465" y="2.5" font-family="STIXGeneral-Regular" font-size="10" fill="#000000">𝛽</tspan>
      </text>
      <text transform="matrix(1, 0, 0, 1, 1059.266, 249.488)" svgjs:data="{&quot;leading&quot;:&quot;1.3&quot;}">
        <tspan x="-2.465" y="2.5" font-family="STIXGeneral-Regular" font-size="10" fill="#000000">𝛽</tspan>
      </text>
      <text transform="matrix(1, 0, 0, 1, 1090.385, 272.773)" svgjs:data="{&quot;leading&quot;:&quot;1.3&quot;}">
        <tspan x="-2.14" y="2.5" font-family="STIXGeneral-Regular" font-size="10" fill="#000000">𝛾</tspan>
      </text>
      <text transform="matrix(1, 0, 0, 1, 1045.639, 370.657)" svgjs:data="{&quot;leading&quot;:&quot;1.3&quot;}">
        <tspan x="-1.389" y="1.5" font-family="ArialMT" font-size="10" fill="#000000">I</tspan>
      </text>
      <text transform="matrix(1, 0, 0, 1, 1026.924, 213.734)" svgjs:data="{&quot;leading&quot;:&quot;1.3&quot;}">
        <tspan x="-2.315" y="2.5" font-family="STIXGeneral-Regular" font-size="10" fill="#000000">𝛿</tspan>
      </text>
      <text transform="matrix(1, 0, 0, 1, 1026.924, 321.319)" svgjs:data="{&quot;leading&quot;:&quot;1.3&quot;}">
        <tspan x="-2.778" y="1.5" font-family="ArialMT" font-size="10" fill="#000000">II</tspan>
      </text>
    </g>
    <g id="reaction">
      <g>
        <path d="M1035.563,172.122 C1054.158,191.868 1070.244,203.864 1091.281,203.864 C1117.669,203.864 1139.483,181.757 1154.852,165.192" fill-opacity="0" stroke="#41719C" stroke-width="3"></path>
        <path d="M1035.563,172.122 L1040.551,171.344 L1029.883,165.933 L1034.362,177.024 z" fill="#41719C" fill-opacity="1" stroke="#41719C" stroke-width="3" stroke-opacity="1"></path>
      </g>
      <text transform="matrix(1, 0, 0, 1, 1021.553, 146.15)" svgjs:data="{&quot;leading&quot;:&quot;1.3&quot;}">
        <tspan x="-22.447" y="7.212" font-family="ArialMT" font-size="24" fill="#000000">ATP</tspan>
      </text>
      <text transform="matrix(1, 0, 0, 1, 1180.086, 146.15)" svgjs:data="{&quot;leading&quot;:&quot;1.3&quot;}">
        <tspan x="-47.692" y="7.212" font-family="ArialMT" font-size="24" fill="#000000">ADP + P</tspan>
        <tspan x="44.582" y="7.212" font-family="ArialMT" font-size="14" fill="#000000">i</tspan>
      </text>
    </g>
    <g id="label">
      <text transform="matrix(1, 0, 0, 1, 1079.385, 574.538)" svgjs:data="{&quot;leading&quot;:&quot;1.3&quot;}">
        <tspan x="-66.148" y="4.5" font-family="ArialMT" font-size="21" fill="#000000">ATP Synthase</tspan>
      </text>
    </g>
  </g><g id="vdx" transform="matrix(1,0,0,1,0.447998046875,0)">
    <g id="pathway">
      <g>
        <path d="M67.486,315.033 C79.998,302.088 91.109,294.301 105.432,294.301 C124.28,294.301 139.86,310.091 150.838,321.922" fill-opacity="0" stroke="#41719C" stroke-width="3"></path>
        <path d="M67.486,315.033 L66.312,310.124 L61.772,321.191 L72.469,315.838 z" fill="#41719C" fill-opacity="1" stroke="#41719C" stroke-width="3" stroke-opacity="1"></path>
      </g>
      <g>
        <path d="M184.506,335.088 L216.647,335.088" fill-opacity="0" stroke="#41719C" stroke-width="3"></path>
        <path d="M216.647,335.088 L213.847,339.288 L225.047,335.088 L213.847,330.888 z" fill="#41719C" fill-opacity="1" stroke="#41719C" stroke-width="3" stroke-opacity="1"></path>
      </g>
      <g>
        <path d="M144.445,357.925 C131.933,370.871 120.823,378.657 106.499,378.657 C87.651,378.657 72.071,362.868 61.093,351.037" fill-opacity="0" stroke="#41719C" stroke-width="3"></path>
        <path d="M144.445,357.925 L145.619,362.835 L150.159,351.768 L139.462,357.121 z" fill="#41719C" fill-opacity="1" stroke="#41719C" stroke-width="3" stroke-opacity="1"></path>
      </g>
      <text transform="matrix(1, 0, 0, 1, 45.556, 335.979)" svgjs:data="{&quot;leading&quot;:&quot;1.3&quot;}">
        <tspan x="-8.004" y="7.455" font-family="ArialMT" font-size="24" fill="#000000">V</tspan>
      </text>
      <text transform="matrix(1, 0, 0, 1, 165.375, 335.979)" svgjs:data="{&quot;leading&quot;:&quot;1.3&quot;}">
        <tspan x="-7.33" y="7.455" font-family="ArialMT" font-size="24" fill="#000000">Z</tspan>
      </text>
    </g>
    <g id="vde">
      <g>
        <path d="M105.966,427.106 C87.692,427.106 72.878,417.276 72.878,405.151 C72.878,393.025 87.692,383.195 105.966,383.195 C124.239,383.195 139.053,393.025 139.053,405.151 C139.053,417.276 124.239,427.106 105.966,427.106 z" fill="#A9D18E"></path>
        <path d="M105.966,427.106 C87.692,427.106 72.878,417.276 72.878,405.151 C72.878,393.025 87.692,383.195 105.966,383.195 C124.239,383.195 139.053,393.025 139.053,405.151 C139.053,417.276 124.239,427.106 105.966,427.106 z" fill-opacity="0" stroke="#3B3838" stroke-width="1"></path>
      </g>
      <text transform="matrix(1, 0, 0, 1, 105.466, 404.651)" svgjs:data="{&quot;leading&quot;:&quot;1.3&quot;}">
        <tspan x="-24.674" y="7.5" font-family="ArialMT" font-size="24" fill="#000000">VDE</tspan>
      </text>
    </g>
    <g id="ze">
      <g>
        <path d="M105.966,291.597 C87.692,291.597 72.878,281.767 72.878,269.641 C72.878,257.516 87.692,247.686 105.966,247.686 C124.239,247.686 139.053,257.516 139.053,269.641 C139.053,281.767 124.239,291.597 105.966,291.597 z" fill="#FFE698"></path>
        <path d="M105.966,291.597 C87.692,291.597 72.878,281.767 72.878,269.641 C72.878,257.516 87.692,247.686 105.966,247.686 C124.239,247.686 139.053,257.516 139.053,269.641 C139.053,281.767 124.239,291.597 105.966,291.597 z" fill-opacity="0" stroke="#3B3838" stroke-width="1"></path>
      </g>
      <text transform="matrix(1, 0, 0, 1, 105.466, 269.141)" svgjs:data="{&quot;leading&quot;:&quot;1.3&quot;}">
        <tspan x="-15.334" y="7.5" font-family="ArialMT" font-size="24" fill="#000000">ZE</tspan>
      </text>
    </g>
    <g id="psbs">
      <g id="psbs">
        <path d="M245.618,293.94 L270.775,293.94 C276.882,293.94 281.833,298.481 281.833,304.083 L281.833,371.767 C281.833,377.368 276.882,381.909 270.775,381.909 L245.618,381.909 C239.511,381.909 234.56,377.368 234.56,371.767 L234.56,304.083 C234.56,298.481 239.511,293.94 245.618,293.94 z" fill="#6C9700"></path>
        <path d="M245.618,293.94 L270.775,293.94 C276.882,293.94 281.833,298.481 281.833,304.083 L281.833,371.767 C281.833,377.368 276.882,381.909 270.775,381.909 L245.618,381.909 C239.511,381.909 234.56,377.368 234.56,371.767 L234.56,304.083 C234.56,298.481 239.511,293.94 245.618,293.94 z" fill-opacity="0" stroke="#3B3838" stroke-width="1"></path>
      </g>
      <text transform="matrix(1, 0, 0, 1, 257.822, 367.077)" svgjs:data="{&quot;leading&quot;:&quot;1.3&quot;}">
        <tspan x="-16.731" y="4.073" font-family="ArialMT" font-size="14" fill="#000000">PsbS</tspan>
      </text>
    </g>
  </g><g id="ferredoxin" transform="matrix(1,0,0,1,0.16302490234375,0)">
    <g id="shape">
      <path d="M854.896,226.945 C845.475,226.945 837.837,219.307 837.837,209.886 C837.837,200.464 845.475,192.827 854.896,192.827 C864.318,192.827 871.956,200.464 871.956,209.886 C871.956,219.307 864.318,226.945 854.896,226.945 z" fill="#a08c79"></path>
      <path d="M854.896,226.945 C845.475,226.945 837.837,219.307 837.837,209.886 C837.837,200.464 845.475,192.827 854.896,192.827 C864.318,192.827 871.956,200.464 871.956,209.886 C871.956,219.307 864.318,226.945 854.896,226.945 z" fill-opacity="0" stroke="#3B3838" stroke-width="1"></path>
    </g>
    <text transform="matrix(1, 0, 0, 1, 882.063, 238.536)" svgjs:data="{&quot;leading&quot;:&quot;1.3&quot;}">
      <tspan x="-12.253" y="4.689" font-family="ArialMT" font-size="21" fill="#000000">Fd</tspan>
    </text>
  </g><g id="fnr" transform="matrix(1,0,0,1,-0.2490234375,0)">
    <g id="shape">
      <path d="M884.643,149.036 C875.221,149.036 867.584,141.398 867.584,131.977 C867.584,122.555 875.221,114.917 884.643,114.917 C894.065,114.917 901.702,122.555 901.702,131.977 C901.702,141.398 894.065,149.036 884.643,149.036 z" fill="#eecc00"></path>
      <path d="M884.643,149.036 C875.221,149.036 867.584,141.398 867.584,131.977 C867.584,122.555 875.221,114.917 884.643,114.917 C894.065,114.917 901.702,122.555 901.702,131.977 C901.702,141.398 894.065,149.036 884.643,149.036 z" fill-opacity="0" stroke="#3B3838" stroke-width="1"></path>
    </g>
    <g id="reaction">
      <g>
        <path d="M940.627,92.514 C922.032,112.26 905.946,124.255 884.91,124.255 C858.521,124.255 836.707,102.149 821.338,85.584" fill-opacity="0" stroke="#41719C" stroke-width="3"></path>
        <path d="M940.627,92.514 L941.828,97.416 L946.307,86.325 L935.639,91.736 z" fill="#41719C" fill-opacity="1" stroke="#41719C" stroke-width="3" stroke-opacity="1"></path>
      </g>
      <text transform="matrix(1, 0, 0, 1, 828.651, 66.755)" svgjs:data="{&quot;leading&quot;:&quot;1.3&quot;}">
        <tspan x="-38.402" y="8" font-family="ArialMT" font-size="24" fill="#000000">NADP</tspan>
        <tspan x="28.277" y="8" font-family="LucidaGrande" font-size="24" fill="#000000">⁺</tspan>
      </text>
      <text transform="matrix(1, 0, 0, 1, 963.656, 66.755)" svgjs:data="{&quot;leading&quot;:&quot;1.3&quot;}">
        <tspan x="-42.006" y="7.212" font-family="ArialMT" font-size="24" fill="#000000">NADPH</tspan>
      </text>
    </g>
    <text transform="matrix(1, 0, 0, 1, 917.873, 162.576)" svgjs:data="{&quot;leading&quot;:&quot;1.3&quot;}">
      <tspan x="-21.579" y="4.689" font-family="ArialMT" font-size="21" fill="#000000">FNR</tspan>
    </text>
  </g><g id="ptox" transform="matrix(1,0,0,1,0.218994140625,0)">
    <g id="shape">
      <path d="M529.832,302.301 C511.558,302.301 496.745,292.471 496.745,280.346 C496.745,268.22 511.558,258.39 529.832,258.39 C548.106,258.39 562.919,268.22 562.919,280.346 C562.919,292.471 548.106,302.301 529.832,302.301 z" fill="#c2aaff"></path>
      <path d="M529.832,302.301 C511.558,302.301 496.745,292.471 496.745,280.346 C496.745,268.22 511.558,258.39 529.832,258.39 C548.106,258.39 562.919,268.22 562.919,280.346 C562.919,292.471 548.106,302.301 529.832,302.301 z" fill-opacity="0" stroke="#3B3838" stroke-width="1"></path>
    </g>
    <text transform="matrix(1, 0, 0, 1, 529.332, 279.846)" svgjs:data="{&quot;leading&quot;:&quot;1.3&quot;}">
      <tspan x="-24.341" y="5.5" font-family="ArialMT" font-size="18" fill="#000000">PTOX</tspan>
    </text>
    <g id="reaction">
      <g>
        <path d="M561.614,243.741 C551.06,257.538 541.669,265.828 529.576,265.828 C513.595,265.828 500.385,248.871 491.077,236.166" fill-opacity="0" stroke="#41719C" stroke-width="3"></path>
        <path d="M561.614,243.741 L563.345,248.483 L566.582,236.968 L556.571,243.515 z" fill="#41719C" fill-opacity="1" stroke="#41719C" stroke-width="3" stroke-opacity="1"></path>
      </g>
      <text transform="matrix(1, 0, 0, 1, 490.177, 218.32)" svgjs:data="{&quot;leading&quot;:&quot;1.3&quot;}">
        <tspan x="-14.396" y="8" font-family="ArialMT" font-size="24" fill="#000000">O</tspan>
        <tspan x="4.271" y="8" font-family="LucidaGrande" font-size="24" fill="#000000">₂</tspan>
      </text>
      <text transform="matrix(1, 0, 0, 1, 570.337, 218.32)" svgjs:data="{&quot;leading&quot;:&quot;1.3&quot;}">
        <tspan x="-23.062" y="8" font-family="ArialMT" font-size="24" fill="#000000">H</tspan>
        <tspan x="-5.73" y="8" font-family="LucidaGrande" font-size="24" fill="#000000">₂</tspan>
        <tspan x="4.395" y="8" font-family="ArialMT" font-size="24" fill="#000000">O</tspan>
      </text>
    </g>
  </g><g id="ion-channels" transform="matrix(1,0,0,1,0.2069091796875,0)">
    <g id="ca-channel">
      <g id="shape">
        <path d="M1227.972,372.685 L1219.594,383.444 L1227.972,372.685 L1219.594,383.444 L1200.532,383.444 L1219.594,383.444 L1200.532,383.444 L1192.154,372.685 L1200.532,383.444 L1192.154,372.685 L1192.154,290.132 L1192.154,372.685 L1192.154,290.132 L1227.972,290.132 L1192.154,290.132 L1227.972,290.132 L1227.972,372.685 L1227.972,290.132 L1227.972,372.685 z" fill="#959595"></path>
        <path d="M1227.972,372.685 L1219.594,383.444 L1227.972,372.685 L1219.594,383.444 L1200.532,383.444 L1219.594,383.444 L1200.532,383.444 L1192.154,372.685 L1200.532,383.444 L1192.154,372.685 L1192.154,290.132 L1192.154,372.685 L1192.154,290.132 L1227.972,290.132 L1192.154,290.132 L1227.972,290.132 L1227.972,372.685 L1227.972,290.132 L1227.972,372.685 z" fill-opacity="0" stroke="#3B3838" stroke-width="1"></path>
      </g>
    </g>
    <g id="k-channel">
      <g id="shape">
        <path d="M1260.337,383.444 L1279.399,383.444 L1287.777,372.685 L1287.777,300.89 L1279.399,290.132 L1260.337,290.132 L1251.959,300.89 L1251.959,372.685 L1260.337,383.444 z" fill="#959595"></path>
        <path d="M1260.337,383.444 L1279.399,383.444 L1287.777,372.685 L1287.777,300.89 L1279.399,290.132 L1260.337,290.132 L1251.959,300.89 L1251.959,372.685 L1260.337,383.444 z" fill-opacity="0" stroke="#3B3838" stroke-width="1"></path>
      </g>
    </g>
    <g id="pmf">
      <text transform="matrix(1, 0, 0, 1, 1358.84, 336.004)" svgjs:data="{&quot;leading&quot;:&quot;1.3&quot;}">
        <tspan x="-33.548" y="5.5" font-family="ArialMT" font-size="18" fill="#EE6600">ΔΨ/</tspan>
        <tspan x="-1.485" y="5.5" font-family="ArialMT" font-size="18" fill="#EE6600">Δ</tspan>
        <tspan x="10.538" y="5.5" font-family="ArialMT" font-size="18" fill="#EE6600">pH</tspan>
      </text>
    </g>
    <g id="label">
      <text transform="matrix(1, 0, 0, 1, 1243.67, 574.538)" id="Ion_Channels" svgjs:data="{&quot;leading&quot;:&quot;1.3&quot;}">
        <tspan x="-61.877" y="4.5" font-family="ArialMT" font-size="21" fill="#000000">Ion Channels</tspan>
      </text>
    </g>
  </g><g id="ion-flux" transform="matrix(1,0,0,1,-0.1610107421875,0)">
    <g id="ca-channel">
      <text transform="matrix(1, 0, 0, 1, 1209.563, 436.118)" id="Ca⁺" svgjs:data="{&quot;leading&quot;:&quot;1.3&quot;}">
        <tspan x="-20.402" y="8" font-family="ArialMT" font-size="24" fill="#000000">Ca</tspan>
        <tspan x="10.277" y="8" font-family="LucidaGrande" font-size="24" fill="#000000">⁺</tspan>
      </text>
      <g id="direction">
        <path d="M1210.063,409.591 L1210.063,254.585" fill-opacity="0" stroke="#00BCFF" stroke-width="3"></path>
        <path d="M1210.063,409.591 L1205.863,406.791 L1210.063,417.991 L1214.263,406.791 z" fill="#00BCFF" fill-opacity="1" stroke="#00BCFF" stroke-width="3" stroke-opacity="1"></path>
      </g>
    </g>
    <g id="k-channel">
      <text transform="matrix(1, 0, 0, 1, 1280.918, 236.382)" svgjs:data="{&quot;leading&quot;:&quot;1.3&quot;}">
        <tspan x="-13.729" y="8" font-family="ArialMT" font-size="24" fill="#000000">H</tspan>
        <tspan x="3.604" y="8" font-family="LucidaGrande" font-size="24" fill="#000000">⁺</tspan>
      </text>
      <text transform="matrix(1, 0, 0, 1, 1269.368, 439.123)" svgjs:data="{&quot;leading&quot;:&quot;1.3&quot;}">
        <tspan x="-13.066" y="8" font-family="ArialMT" font-size="24" fill="#000000">K</tspan>
        <tspan x="2.941" y="8" font-family="LucidaGrande" font-size="24" fill="#000000">⁺</tspan>
      </text>
      <g id="direction">
        <path d="M1264.812,408.277 L1264.812,253.271" fill-opacity="0" stroke="#00BCFF" stroke-width="3"></path>
        <path d="M1264.812,408.277 L1260.612,405.477 L1264.812,416.677 L1269.012,405.477 z" fill="#00BCFF" fill-opacity="1" stroke="#00BCFF" stroke-width="3" stroke-opacity="1"></path>
      </g>
      <g id="direction">
        <path d="M1274.923,265.298 L1274.923,420.304" fill-opacity="0" stroke="#00BCFF" stroke-width="3"></path>
        <path d="M1274.923,265.298 L1279.123,268.098 L1274.923,256.898 L1270.723,268.098 z" fill="#00BCFF" fill-opacity="1" stroke="#00BCFF" stroke-width="3" stroke-opacity="1"></path>
      </g>
    </g>
  </g></svg>