<?xml version="1.0" encoding="UTF-8"?>
<!DOCTYPE svg PUBLIC "-//W3C//DTD SVG 1.1//EN" "http://www.w3.org/Graphics/SVG/1.1/DTD/svg11.dtd">
<svg version="1.1" xmlns="http://www.w3.org/2000/svg" xmlns:xlink="http://www.w3.org/1999/xlink" x="0" y="0" width="1400" height="600" viewBox="0, 0, 1400, 600">
  <g id="fnr" transform="translate(0, 0)">
    <g id="shape">
      <path d="M884.643,149.036 C875.221,149.036 867.584,141.398 867.584,131.977 C867.584,122.555 875.221,114.917 884.643,114.917 C894.065,114.917 901.702,122.555 901.702,131.977 C901.702,141.398 894.065,149.036 884.643,149.036 z" fill="#EECC00"/>
      <path d="M884.643,149.036 C875.221,149.036 867.584,141.398 867.584,131.977 C867.584,122.555 875.221,114.917 884.643,114.917 C894.065,114.917 901.702,122.555 901.702,131.977 C901.702,141.398 894.065,149.036 884.643,149.036 z" fill-opacity="0" stroke="#3B3838" stroke-width="1"/>
    </g>
    <g id="reaction">
      <g>
        <path d="M940.627,92.514 C922.032,112.26 905.946,124.255 884.91,124.255 C858.521,124.255 836.707,102.149 821.338,85.584" fill-opacity="0" stroke="#41719C" stroke-width="3"/>
        <path d="M940.627,92.514 L941.828,97.416 L946.307,86.325 L935.639,91.736 z" fill="#41719C" fill-opacity="1" stroke="#41719C" stroke-width="3" stroke-opacity="1"/>
      </g>
      <text transform="matrix(1, 0, 0, 1, 828.651, 66.755)">
        <tspan x="-38.402" y="8" font-family="ArialMT" font-size="24" fill="#000000">NADP</tspan>
        <tspan x="28.277" y="8" font-family="LucidaGrande" font-size="24" fill="#000000">⁺</tspan>
      </text>
      <text transform="matrix(1, 0, 0, 1, 963.656, 66.755)">
        <tspan x="-42.006" y="7.212" font-family="ArialMT" font-size="24" fill="#000000">NADPH</tspan>
      </text>
    </g>
    <text transform="matrix(1, 0, 0, 1, 917.873, 162.576)">
      <tspan x="-21.579" y="4.689" font-family="ArialMT" font-size="21" fill="#000000">FNR</tspan>
    </text>
  </g>
</svg>
