<?xml version="1.0" encoding="UTF-8"?>
<!DOCTYPE svg PUBLIC "-//W3C//DTD SVG 1.1//EN" "http://www.w3.org/Graphics/SVG/1.1/DTD/svg11.dtd">
<svg version="1.1" xmlns="http://www.w3.org/2000/svg" xmlns:xlink="http://www.w3.org/1999/xlink" x="0" y="0" width="1400" height="600" viewBox="0, 0, 1400, 600">
  <defs>
    <pattern id="Pattern_1" patternUnits="userSpaceOnUse" x="227.713" y="51.755" width="40" height="40" patternTransform="matrix(0.29, 0, 0, 0.29, 0, 0)">
      <g transform="translate(-0, -0)">
        <path d="M40,0 L0,0 L0,40 L40,40 L40,0 z" fill="#BFBFBF"/>
        <path d="M30,0 L40,10 L40,0 L30,0 z" fill="#808080"/>
        <path d="M0,40 L0,30 L10,40 L0,40 z" fill="#808080"/>
        <path d="M30,40 L40,40 L40,30 L10,0 L0,0 L0,10" fill="#808080"/>
      </g>
    </pattern>
  </defs>
  <g id="photosystem-ii-repair" transform="translate(0, 0)">
    <g id="core">
      <path d="M279.906,51.517 C288.842,51.623 295.177,58.023 299.897,64.925 C290.659,66.659 285.627,75.039 285.22,83.924 C285.221,94.604 293.067,103.261 302.747,103.261 C305.751,103.28 307.465,102.621 310.077,101.404 C310.186,103.313 310.129,102.064 310.173,105.154 C310.122,119.439 304.257,142.573 293.484,152.939 C303.059,155.695 312.471,161.08 313.12,171.324 C313.12,183.2 301.054,192.827 286.169,192.827 C281.221,192.788 276.256,191.812 271.878,189.454 C267.545,191.967 262.502,192.628 257.588,192.827 C242.703,192.827 230.637,183.2 230.637,171.324 C231.039,163.41 235.938,161.4 241.853,156.682 L241.601,156.288 C244.383,159.803 248.31,162.117 252.796,162.371 C266.372,162.371 277.379,137.721 277.379,107.313 C276.802,91.44 275.15,71.912 264.517,58.977 C268.591,54.468 273.945,52.108 279.906,51.517 L279.906,51.517 z" fill="#B4D66F"/>
      <path d="M279.906,51.517 C288.842,51.623 295.177,58.023 299.897,64.925 C290.659,66.659 285.627,75.039 285.22,83.924 C285.221,94.604 293.067,103.261 302.747,103.261 C305.751,103.28 307.465,102.621 310.077,101.404 C310.186,103.313 310.129,102.064 310.173,105.154 C310.122,119.439 304.257,142.573 293.484,152.939 C303.059,155.695 312.471,161.08 313.12,171.324 C313.12,183.2 301.054,192.827 286.169,192.827 C281.221,192.788 276.256,191.812 271.878,189.454 C267.545,191.967 262.502,192.628 257.588,192.827 C242.703,192.827 230.637,183.2 230.637,171.324 C231.039,163.41 235.938,161.4 241.853,156.682 L241.601,156.288 C244.383,159.803 248.31,162.117 252.796,162.371 C266.372,162.371 277.379,137.721 277.379,107.313 C276.802,91.44 275.15,71.912 264.517,58.977 C268.591,54.468 273.945,52.108 279.906,51.517 L279.906,51.517 z" fill-opacity="0" stroke="#3B3838" stroke-width="1"/>
    </g>
    <g id="d1">
      <g id="photosystem-ii-repair-d1">
        <path d="M252.296,161.871 C238.719,161.871 227.713,137.221 227.713,106.813 C227.713,76.405 238.719,51.755 252.296,51.755 C265.872,51.755 276.879,76.405 276.879,106.813 C276.879,137.221 265.872,161.871 252.296,161.871 z" fill="url(#Pattern_1)"/>
        <path d="M252.296,161.871 C238.719,161.871 227.713,137.221 227.713,106.813 C227.713,76.405 238.719,51.755 252.296,51.755 C265.872,51.755 276.879,76.405 276.879,106.813 C276.879,137.221 265.872,161.871 252.296,161.871 z" fill-opacity="0" stroke="#3B3838" stroke-width="1"/>
      </g>
      <text transform="matrix(1, 0, 0, 1, 251.954, 140.33)">
        <tspan x="-8.948" y="4.5" font-family="Arial,ArialMT" font-size="14" fill="#000000">D1</tspan>
      </text>
    </g>
    <g id="antenna">
      <g id="lhcb">
        <path d="M199.103,64.684 L224.26,64.684 C230.367,64.684 235.318,69.225 235.318,74.826 L235.318,142.51 C235.318,148.112 230.367,152.652 224.26,152.652 L199.103,152.652 C192.996,152.652 188.045,148.112 188.045,142.51 L188.045,74.826 C188.045,69.225 192.996,64.684 199.103,64.684 z" fill="#8BC300"/>
        <path d="M199.103,64.684 L224.26,64.684 C230.367,64.684 235.318,69.225 235.318,74.826 L235.318,142.51 C235.318,148.112 230.367,152.652 224.26,152.652 L199.103,152.652 C192.996,152.652 188.045,148.112 188.045,142.51 L188.045,74.826 C188.045,69.225 192.996,64.684 199.103,64.684 z" fill-opacity="0" stroke="#3B3838" stroke-width="1"/>
      </g>
      <g id="lhcb">
        <path d="M162.104,64.684 L187.261,64.684 C193.368,64.684 198.319,69.225 198.319,74.826 L198.319,142.51 C198.319,148.112 193.368,152.652 187.261,152.652 L162.104,152.652 C155.997,152.652 151.046,148.112 151.046,142.51 L151.046,74.826 C151.046,69.225 155.997,64.684 162.104,64.684 z" fill="#8BC300"/>
        <path d="M162.104,64.684 L187.261,64.684 C193.368,64.684 198.319,69.225 198.319,74.826 L198.319,142.51 C198.319,148.112 193.368,152.652 187.261,152.652 L162.104,152.652 C155.997,152.652 151.046,148.112 151.046,142.51 L151.046,74.826 C151.046,69.225 155.997,64.684 162.104,64.684 z" fill-opacity="0" stroke="#3B3838" stroke-width="1"/>
      </g>
    </g>
    <g id="cycle">
      <g>
        <path d="M386.992,257.171 C392.09,218.842 396.374,189.139 383.483,161.597 C372.141,137.364 356.506,120.434 327.632,111.689" fill-opacity="0" stroke="#B4D66F" stroke-width="4" stroke-dasharray="12,4"/>
        <path d="M386.992,257.171 L382.647,253.376 L385.747,266.69 L392.166,254.621 z" fill="#B4D66F" fill-opacity="1" stroke="#B4D66F" stroke-width="4" stroke-opacity="1"/>
      </g>
      <g>
        <path d="M194.942,180.037 C170.999,199.57 168.196,215.87 172.831,236.127 C178.75,261.991 183.746,269.985 201.233,281.773" fill-opacity="0" stroke="#983432" stroke-width="4" stroke-dasharray="12,4"/>
        <path d="M194.942,180.037 L195.274,185.796 L202.609,174.261 L189.498,178.129 z" fill="#983432" fill-opacity="1" stroke="#983432" stroke-width="4" stroke-opacity="1"/>
      </g>
      <text transform="matrix(1, 0, 0, 1, 138.727, 196.734)">
        <tspan x="-25.938" y="4.5" font-family="Arial,ArialMT" font-size="14" fill="#000000">damage</tspan>
      </text>
      <text transform="matrix(1, 0, 0, 1, 414.208, 173.962)">
        <tspan x="-19.114" y="4.5" font-family="Arial,ArialMT" font-size="14" fill="#000000">repair</tspan>
      </text>
    </g>
    <g id="light">
      <path d="M161.912,52.225 L144.588,32.459 L150.267,29.606 L136.606,6.315 L109.508,21.544 L133.471,38.34 L125.467,43.703 L148.498,60.205 L141.533,63.422 L178.709,90.296 L156.295,55.631 L161.912,52.225 z" fill="#FFEC7F"/>
      <path d="M136.606,6.315 L150.267,29.606 L144.588,32.459 L161.912,52.225 L161.912,52.225 L156.294,55.631 L178.708,90.296 L141.533,63.422 L148.498,60.205 L125.467,43.703 L133.471,38.34 L109.508,21.544 L136.606,6.315 z M136.24,7.668 L111.383,21.637 L134.044,37.521 L135.239,38.358 L134.027,39.17 L127.223,43.731 L149.081,59.392 L150.477,60.393 L148.918,61.113 L143.504,63.613 L174.975,86.363 L155.455,56.174 L154.896,55.309 L155.776,54.776 L160.374,51.987 L143.836,33.118 L142.984,32.146 L144.139,31.565 L148.864,29.191 L136.24,7.668 z" fill="#000000"/>
    </g>
  </g>
</svg>
