<?xml version="1.0" encoding="UTF-8"?>
<!DOCTYPE svg PUBLIC "-//W3C//DTD SVG 1.1//EN" "http://www.w3.org/Graphics/SVG/1.1/DTD/svg11.dtd">
<svg version="1.1" xmlns="http://www.w3.org/2000/svg" xmlns:xlink="http://www.w3.org/1999/xlink" x="0" y="0" width="1400" height="600" viewBox="0, 0, 1400, 600">
  <g id="photosystem-ii" transform="translate(0, 0)">
    <g id="fluorescence">
      <path d="M331.952,220.062 C336.305,226.505 338.122,223.592 339.949,227.289 C341.176,229.771 341.356,230.994 339.036,233.332 C337.741,234.529 336.758,236.616 337.815,238.755 C338.873,240.894 340.763,241.464 342.864,241.078 C344.608,240.757 346.856,241.262 347.914,243.401 C348.971,245.54 347.922,247.608 346.693,248.824 C345.274,250.227 344.416,252.107 345.473,254.246 C346.53,256.385 348.897,256.826 350.522,256.57 C352.248,256.298 354.514,256.754 355.571,258.893 C356.629,261.032 355.62,263.111 354.351,264.316 C352.79,265.797 352.073,267.599 353.131,269.738 C354.188,271.877 355.902,272.456 358.18,272.062 C359.916,271.761 362.172,272.246 363.229,274.385 C364.286,276.524 364.395,277.602 362.009,279.807 C360.714,281.004 359.731,283.091 360.788,285.23 C361.846,287.369 363.736,287.94 365.837,287.553 C367.581,287.233 369.829,287.738 370.887,289.877 C371.944,292.016 370.895,294.084 369.666,295.299 C368.247,296.702 367.389,298.583 368.446,300.722 C369.503,302.861 371.87,303.301 373.495,303.045 C375.221,302.773 377.487,303.23 378.544,305.369 C379.602,307.508 378.593,309.586 377.324,310.791 C375.763,312.273 375.046,314.075 376.104,316.214 C377.161,318.352 378.875,318.931 381.153,318.537 C382.889,318.236 385.145,318.721 386.202,320.86 C387.259,322.999 384.481,324.803 384.982,326.283" fill-opacity="0" stroke="#EF2D37" stroke-width="2"/>
      <path d="M331.952,220.062 L336.262,220.433 L328.486,213.751 L329.952,223.899 z" fill="#EF2D37" fill-opacity="1" stroke="#EF2D37" stroke-width="2" stroke-opacity="1"/>
    </g>
    <g id="core">
      <path d="M395.811,281.773 C404.748,281.879 411.083,288.279 415.802,295.181 C406.565,296.915 401.533,305.296 401.126,314.18 C401.126,324.86 408.973,333.517 418.652,333.517 C421.657,333.536 423.371,332.878 425.982,331.661 C426.091,333.569 426.034,332.32 426.078,335.411 C426.027,349.696 420.163,372.829 409.389,383.195 C418.965,385.952 428.377,391.336 429.026,401.581 C429.026,413.456 416.959,423.083 402.074,423.083 C397.126,423.044 392.162,422.068 387.784,419.71 C383.45,422.223 378.407,422.885 373.493,423.083 C358.609,423.083 346.542,413.456 346.542,401.581 C346.945,393.666 351.844,391.657 357.758,386.938 C348.423,373.186 344.484,354.49 344.118,338.253 C344.118,307.845 355.125,283.194 368.701,283.194 C373.362,283.288 377.246,286.053 380.114,289.542 C384.329,284.992 389.565,282.053 395.811,281.773 L395.811,281.773 z" fill="#B4D66F"/>
      <path d="M395.811,281.773 C404.748,281.879 411.083,288.279 415.802,295.181 C406.565,296.915 401.533,305.296 401.126,314.18 C401.126,324.86 408.973,333.517 418.652,333.517 C421.657,333.536 423.371,332.878 425.982,331.661 C426.091,333.569 426.034,332.32 426.078,335.411 C426.027,349.696 420.163,372.829 409.389,383.195 C418.965,385.952 428.377,391.336 429.026,401.581 C429.026,413.456 416.959,423.083 402.074,423.083 C397.126,423.044 392.162,422.068 387.784,419.71 C383.45,422.223 378.407,422.885 373.493,423.083 C358.609,423.083 346.542,413.456 346.542,401.581 C346.945,393.666 351.844,391.657 357.758,386.938 C348.423,373.186 344.484,354.49 344.118,338.253 C344.118,307.845 355.125,283.194 368.701,283.194 C373.362,283.288 377.246,286.053 380.114,289.542 C384.329,284.992 389.565,282.053 395.811,281.773 L395.811,281.773 z" fill-opacity="0" stroke="#3B3838" stroke-width="1"/>
    </g>
    <g id="antenna">
      <g id="lhcb">
        <path d="M315.009,292.94 L340.166,292.94 C346.273,292.94 351.224,297.481 351.224,303.083 L351.224,370.767 C351.224,376.368 346.273,380.909 340.166,380.909 L315.009,380.909 C308.902,380.909 303.951,376.368 303.951,370.767 L303.951,303.083 C303.951,297.481 308.902,292.94 315.009,292.94 z" fill="#8CC400"/>
        <path d="M315.009,292.94 L340.166,292.94 C346.273,292.94 351.224,297.481 351.224,303.083 L351.224,370.767 C351.224,376.368 346.273,380.909 340.166,380.909 L315.009,380.909 C308.902,380.909 303.951,376.368 303.951,370.767 L303.951,303.083 C303.951,297.481 308.902,292.94 315.009,292.94 z" fill-opacity="0" stroke="#3B3838" stroke-width="1"/>
      </g>
      <g id="lhcb">
        <path d="M280.01,292.94 L305.167,292.94 C311.274,292.94 316.225,297.481 316.225,303.083 L316.225,370.767 C316.225,376.368 311.274,380.909 305.167,380.909 L280.01,380.909 C273.903,380.909 268.952,376.368 268.952,370.767 L268.952,303.083 C268.952,297.481 273.903,292.94 280.01,292.94 z" fill="#8CC400"/>
        <path d="M280.01,292.94 L305.167,292.94 C311.274,292.94 316.225,297.481 316.225,303.083 L316.225,370.767 C316.225,376.368 311.274,380.909 305.167,380.909 L280.01,380.909 C273.903,380.909 268.952,376.368 268.952,370.767 L268.952,303.083 C268.952,297.481 273.903,292.94 280.01,292.94 z" fill-opacity="0" stroke="#3B3838" stroke-width="1"/>
      </g>
    </g>
    <g display="none">
      <g>
        <g>
          <path d="M529.599,448.228 C538.536,448.334 544.87,454.734 549.59,461.636 C540.352,463.37 535.32,471.751 534.914,480.635 C534.914,491.315 542.76,499.972 552.44,499.972 C555.445,499.991 557.159,499.333 559.77,498.116 C559.879,500.024 559.822,498.775 559.866,501.865 C559.866,531.488 546.315,555.503 529.599,555.503 C512.883,555.503 499.332,531.488 499.332,501.865 C499.332,472.242 512.883,448.228 529.599,448.228 z" fill="#B4D66F"/>
          <path d="M529.599,448.228 C538.536,448.334 544.87,454.734 549.59,461.636 C540.352,463.37 535.32,471.751 534.914,480.635 C534.914,491.315 542.76,499.972 552.44,499.972 C555.445,499.991 557.159,499.333 559.77,498.116 C559.879,500.024 559.822,498.775 559.866,501.865 C559.866,531.488 546.315,555.503 529.599,555.503 C512.883,555.503 499.332,531.488 499.332,501.865 C499.332,472.242 512.883,448.228 529.599,448.228 z" fill-opacity="0" stroke="#3B3838" stroke-width="2"/>
        </g>
        <g>
          <path d="M502.489,559.766 C488.912,559.766 477.906,535.115 477.906,504.707 C477.906,474.3 488.912,449.649 502.489,449.649 C516.066,449.649 527.072,474.3 527.072,504.707 C527.072,535.115 516.066,559.766 502.489,559.766 z" fill="#B4D66F"/>
          <path d="M502.489,559.766 C488.912,559.766 477.906,535.115 477.906,504.707 C477.906,474.3 488.912,449.649 502.489,449.649 C516.066,449.649 527.072,474.3 527.072,504.707 C527.072,535.115 516.066,559.766 502.489,559.766 z" fill-opacity="0" stroke="#3B3838" stroke-width="2"/>
        </g>
      </g>
      <g>
        <path d="M535.862,546.533 C550.747,546.533 562.813,556.16 562.813,568.036 C562.813,579.911 550.747,589.538 535.862,589.538 C530.914,589.499 525.95,588.523 521.572,586.165 C517.238,588.678 512.195,589.34 507.281,589.538 C492.396,589.538 480.33,579.911 480.33,568.036 C480.33,556.16 492.396,546.533 507.281,546.533 C512.229,546.572 517.194,547.548 521.572,549.906 C525.905,547.393 530.948,546.731 535.862,546.533 z" fill="#B4D66F"/>
        <path d="M535.862,546.533 C550.747,546.533 562.813,556.16 562.813,568.036 C562.813,579.911 550.747,589.538 535.862,589.538 C530.914,589.499 525.95,588.523 521.572,586.165 C517.238,588.678 512.195,589.34 507.281,589.538 C492.396,589.538 480.33,579.911 480.33,568.036 C480.33,556.16 492.396,546.533 507.281,546.533 C512.229,546.572 517.194,547.548 521.572,549.906 C525.905,547.393 530.948,546.731 535.862,546.533 z" fill-opacity="0" stroke="#3B3838" stroke-width="2"/>
      </g>
    </g>
    <g id="water-split">
      <text transform="matrix(1, 0, 0, 1, 352.14, 464.889)">
        <tspan x="-23.062" y="8.212" font-family="ArialMT" font-size="24" fill="#000000">H</tspan>
        <tspan x="-5.73" y="8.212" font-family="LucidaGrande" font-size="24" fill="#000000">₂</tspan>
        <tspan x="4.395" y="8.212" font-family="ArialMT" font-size="24" fill="#000000">O</tspan>
      </text>
      <text transform="matrix(1, 0, 0, 1, 421.816, 464.889)">
        <tspan x="-14.396" y="8.212" font-family="ArialMT" font-size="24" fill="#000000">O</tspan>
        <tspan x="4.271" y="8.212" font-family="LucidaGrande" font-size="24" fill="#000000">₂</tspan>
      </text>
      <g>
        <path d="M353.376,448.164 C353.363,428.717 367.707,412.942 385.413,412.93 C400.189,412.92 412.638,423.889 416.362,438.821" fill-opacity="0" stroke="#3A658B" stroke-width="3"/>
        <path d="M416.362,438.821 L411.854,436.551 L417.381,447.159 L420.192,435.532 z" fill="#3A658B" fill-opacity="1" stroke="#3A658B" stroke-width="3" stroke-opacity="1"/>
      </g>
      <text transform="matrix(1, 0, 0, 1, 503.931, 492.677)">
        <tspan x="-13.729" y="8" font-family="ArialMT" font-size="24" fill="#000000">H</tspan>
        <tspan x="3.604" y="8" font-family="LucidaGrande" font-size="24" fill="#000000">⁺</tspan>
      </text>
    </g>
    <text transform="matrix(1, 0, 0, 1, 384.586, 374.195)" id="photosystem-ii-center">
      <tspan x="-10.509" y="4.5" font-family="Arial-BoldMT" font-size="14" fill="#000000">P</tspan>
      <tspan x="-1.171" y="4.5" font-family="Arial-BoldMT" font-size="7" fill="#000000">680</tspan>
    </text>
    <g id="cofactors">
      <text transform="matrix(1, 0, 0, 1, 371.868, 391.909)">
        <tspan x="-5.657" y="1.5" font-family="ArialMT" font-size="10" fill="#000000">Y</tspan>
        <tspan x="1.013" y="1.5" font-family="ArialMT" font-size="6" fill="#000000">z</tspan>
      </text>
      <text transform="matrix(1, 0, 0, 1, 398.541, 403.233)">
        <tspan x="-15.447" y="2.5" font-family="ArialMT" font-size="10" fill="#000000">CaMn</tspan>
        <tspan x="11.228" y="2.5" font-family="LucidaGrande" font-size="10" fill="#000000">₄</tspan>
      </text>
      <text transform="matrix(1, 0, 0, 1, 391.413, 317.33)">
        <tspan x="-5.89" y="1.5" font-family="ArialMT" font-size="10" fill="#000000">Q</tspan>
        <tspan x="1.888" y="1.5" font-family="ArialMT" font-size="6" fill="#000000">B</tspan>
      </text>
      <path d="M382.041,400.106 L377.867,396.458" fill-opacity="0" stroke="#000000" stroke-width="1"/>
      <path d="M374.577,365.344 L367.782,356.562" fill-opacity="0" stroke="#000000" stroke-width="1"/>
      <path d="M364.772,344.205 L367.782,330.704" fill-opacity="0" stroke="#000000" stroke-width="1"/>
      <path d="M375.812,323.083 L384.362,319.051" fill-opacity="0" stroke="#000000" stroke-width="1"/>
      <text transform="matrix(1, 0, 0, 1, 365.733, 325.923)">
        <tspan x="-5.89" y="1.5" font-family="ArialMT" font-size="10" fill="#000000">Q</tspan>
        <tspan x="1.888" y="1.5" font-family="ArialMT" font-size="6" fill="#000000">A</tspan>
      </text>
      <text transform="matrix(1, 0, 0, 1, 369.095, 352.397)">
        <tspan x="-11.898" y="1.5" font-family="ArialMT" font-size="10" fill="#000000">Pheo</tspan>
      </text>
      <path d="M377.53,386.298 L383.103,381.544" fill-opacity="0" stroke="#000000" stroke-width="1"/>
    </g>
    <g id="light">
      <path d="M289.026,275.747 L271.702,255.981 L277.381,253.128 L263.72,229.837 L236.622,245.066 L260.584,261.862 L252.581,267.226 L275.612,283.728 L268.647,286.945 L305.822,313.819 L283.408,279.153 L289.026,275.747 z" fill="#FFEC7F"/>
      <path d="M263.72,229.837 L277.381,253.128 L271.702,255.981 L289.026,275.747 L289.026,275.747 L283.408,279.153 L305.822,313.819 L268.647,286.945 L275.612,283.728 L252.581,267.226 L260.584,261.862 L236.622,245.066 L263.72,229.837 z M263.354,231.19 L238.497,245.159 L261.158,261.043 L262.353,261.881 L261.141,262.693 L254.336,267.253 L276.195,282.915 L277.591,283.915 L276.031,284.635 L270.618,287.136 L302.088,309.885 L282.569,279.696 L282.01,278.832 L282.89,278.298 L287.488,275.51 L270.949,256.641 L270.098,255.668 L271.253,255.088 L275.978,252.714 L263.354,231.19 z" fill="#000000"/>
    </g>
    <g id="label">
      <text transform="matrix(1, 0, 0, 1, 379.998, 574.538)">
        <tspan x="-69.445" y="4.5" font-family="ArialMT" font-size="21" fill="#000000">Photosystem II</tspan>
      </text>
    </g>
  </g>
</svg>
