<?xml version="1.0" encoding="UTF-8"?>
<!DOCTYPE svg PUBLIC "-//W3C//DTD SVG 1.1//EN" "http://www.w3.org/Graphics/SVG/1.1/DTD/svg11.dtd">
<svg version="1.1" xmlns="http://www.w3.org/2000/svg" xmlns:xlink="http://www.w3.org/1999/xlink" x="0" y="0" width="1400" height="600" viewBox="0, 0, 1400, 600">
  <g id="plastocyanin" transform="translate(0, 0)">
    <g id="shape">
      <path d="M765.396,461.225 C755.975,461.225 748.337,453.587 748.337,444.165 C748.337,434.744 755.975,427.106 765.396,427.106 C774.818,427.106 782.456,434.744 782.456,444.165 C782.456,453.587 774.818,461.225 765.396,461.225 z" fill="#5B9BD5"/>
      <path d="M765.396,461.225 C755.975,461.225 748.337,453.587 748.337,444.165 C748.337,434.744 755.975,427.106 765.396,427.106 C774.818,427.106 782.456,434.744 782.456,444.165 C782.456,453.587 774.818,461.225 765.396,461.225 z" fill-opacity="0" stroke="#000000" stroke-width="1"/>
    </g>
    <g id="cofactor">
      <path d="M770.234,441.036 L771.436,441.339 Q771.058,442.82 770.076,443.597 Q769.094,444.375 767.675,444.375 Q766.207,444.375 765.287,443.777 Q764.367,443.179 763.887,442.046 Q763.407,440.912 763.407,439.611 Q763.407,438.192 763.949,437.136 Q764.491,436.08 765.491,435.531 Q766.492,434.983 767.694,434.983 Q769.057,434.983 769.986,435.677 Q770.915,436.371 771.281,437.628 L770.097,437.907 Q769.781,436.916 769.181,436.464 Q768.58,436.012 767.669,436.012 Q766.622,436.012 765.919,436.513 Q765.216,437.015 764.931,437.861 Q764.646,438.706 764.646,439.605 Q764.646,440.763 764.983,441.627 Q765.321,442.492 766.034,442.919 Q766.746,443.346 767.576,443.346 Q768.586,443.346 769.286,442.764 Q769.986,442.182 770.234,441.036 z" fill="#000000"/>
      <path d="M777.085,444.22 L777.085,443.254 Q776.317,444.369 774.998,444.369 Q774.415,444.369 773.91,444.146 Q773.406,443.923 773.161,443.585 Q772.916,443.247 772.817,442.758 Q772.749,442.43 772.749,441.717 L772.749,437.641 L773.864,437.641 L773.864,441.29 Q773.864,442.163 773.932,442.467 Q774.037,442.907 774.378,443.158 Q774.719,443.408 775.221,443.408 Q775.723,443.408 776.162,443.151 Q776.602,442.894 776.785,442.451 Q776.968,442.008 776.968,441.166 L776.968,437.641 L778.083,437.641 L778.083,444.22 z" fill="#000000"/>
    </g>
    <text transform="matrix(1, 0, 0, 1, 764.896, 480.233)">
      <tspan x="-14.586" y="5.378" font-family="ArialMT" font-size="21" fill="#000000">PC</tspan>
    </text>
  </g>
</svg>
